<?xml version="1.0" encoding="UTF-8"?>
<!-- Generator: visioncortex VTracer 0.6.3 -->
<svg version="1.1" xmlns="http://www.w3.org/2000/svg" width="1280" height="733">
<path d="M0 0 C422.4 0 844.8 0 1280 0 C1280 241.89 1280 483.78 1280 733 C857.6 733 435.2 733 0 733 C0 491.11 0 249.22 0 0 Z " fill="#1f2937" transform="translate(0,0)"/>
<path d="M0 0 C5.38 4.53 11.06 10.16 12.03 17.42 C12.81 37.25 2.36 54.73 -7.12 71.33 C-8.62 73.97 -10.06 76.64 -11.5 79.31 C-14.27 84.41 -17.24 89.36 -20.25 94.31 C-21.66 96.66 -23.07 99 -24.43 101.38 C-27.11 105.94 -29.6 109.56 -34.25 112.31 C-39.71 113.32 -44.65 113.19 -49.44 110.19 C-51.92 108.09 -52.21 107.54 -52.81 104.19 C-52.25 101.31 -52.25 101.31 -50.25 98.31 C-49.92 97.3 -49.59 96.29 -49.25 95.25 C-48.25 92.31 -48.25 92.31 -46.25 90.31 C-45.6 88.73 -44.94 87.15 -44.29 85.57 C-41.29 79.07 -37.33 72.98 -33.5 66.94 C-31.53 63.82 -29.85 60.64 -28.25 57.31 C-27.88 56.63 -27.51 55.95 -27.13 55.25 C-20.57 42.87 -14.44 27.68 -18.25 13.62 C-18.58 12.86 -18.91 12.1 -19.25 11.31 C-29.54 9.87 -38.86 16.43 -46.94 22.19 C-48.72 23.55 -50.49 24.92 -52.25 26.31 C-53.12 27 -53.99 27.69 -54.88 28.4 C-57.7 30.67 -60.47 32.99 -63.25 35.31 C-64.23 36.1 -65.2 36.89 -66.21 37.71 C-83.13 51.58 -99.4 67.58 -112.25 85.31 C-113.08 86.38 -113.92 87.45 -114.76 88.52 C-133.81 112.59 -151.16 142.31 -147.71 174.22 C-145.53 188.77 -139.05 197.96 -127.39 206.71 C-118.74 212.62 -106.76 216.5 -96.25 215.31 C-89.54 213.81 -83.13 211.79 -76.88 208.94 C-63.19 203.1 -48.56 199.78 -33.69 199.75 C-32.74 199.75 -31.8 199.75 -30.82 199.74 C-24.61 199.89 -19.02 200.47 -14.47 205.14 C-13.4 206.86 -12.32 208.59 -11.25 210.31 C-24.77 222.95 -43.78 227.11 -61.79 228.73 C-76.81 229.38 -76.81 229.38 -89.69 235.75 C-91.89 237.95 -94.45 238.95 -97.25 240.31 C-99.87 241.84 -102.44 243.45 -105 245.06 C-105.71 245.51 -106.41 245.95 -107.14 246.41 C-112.63 249.88 -117.97 253.53 -123.25 257.31 C-124.02 257.84 -124.79 258.37 -125.59 258.91 C-138.55 267.78 -150.52 277.89 -162.25 288.31 C-163.04 289.02 -163.04 289.02 -163.85 289.73 C-175.87 300.45 -187.35 311.59 -197.25 324.31 C-198.14 325.43 -199.03 326.54 -199.93 327.65 C-209.9 340.1 -219.78 353.21 -226.85 367.57 C-228.25 370.31 -228.25 370.31 -230.25 372.31 C-230.96 373.93 -231.66 375.55 -232.33 377.18 C-233.76 380.49 -235.42 383.68 -237.07 386.88 C-238.26 389.32 -239.26 391.79 -240.25 394.31 C-240.63 395.19 -241.01 396.07 -241.4 396.97 C-246.63 409.11 -249.98 421.32 -252.25 434.31 C-252.44 435.34 -252.62 436.37 -252.82 437.43 C-255.48 461.31 -254.6 493.23 -239.25 513.31 C-236.64 516.3 -233.98 519.2 -231.23 522.06 C-229.25 524.31 -229.25 524.31 -229.25 526.31 C-228.51 526.57 -227.78 526.84 -227.02 527.11 C-224.22 528.32 -222.36 529.71 -220 531.62 C-208.36 539.89 -193.47 542.13 -179.58 539.88 C-163.04 536.88 -148.17 532.11 -133.25 524.31 C-130.05 522.74 -126.85 521.17 -123.65 519.61 C-121.16 518.41 -121.16 518.41 -119.25 516.31 C-117.59 515.63 -115.92 514.97 -114.25 514.31 C-107.51 510.7 -101.09 506.66 -94.89 502.18 C-92.63 500.58 -90.33 499.04 -88.01 497.5 C-74.4 488.46 -61.61 478.35 -49.1 467.86 C-47.41 466.45 -45.71 465.06 -43.99 463.68 C-39.42 460 -35.07 456.3 -31 452.06 C-29.39 450.45 -27.73 448.99 -25.98 447.52 C-19.81 442.17 -14.09 436.34 -8.32 430.57 C-6.33 428.58 -4.32 426.59 -2.31 424.6 C4.84 417.48 11.51 410.26 17.75 402.31 C19.73 399.94 21.73 397.59 23.75 395.25 C24.51 394.36 24.51 394.36 25.28 393.46 C28.29 389.97 31.34 386.53 34.44 383.12 C38.2 378.98 41.73 374.69 45.25 370.34 C48.09 366.9 51.01 363.54 53.94 360.19 C58.67 354.76 63.31 349.26 67.88 343.69 C72.16 338.46 76.46 333.24 80.81 328.06 C81.65 327.07 82.49 326.07 83.35 325.05 C93.55 313.44 107.96 303.15 123.84 302.11 C132.23 301.99 139.68 303.06 147.75 305.31 C146.91 303.6 146.91 303.6 146.06 301.86 C121.87 251.91 104.37 188.95 117.75 133.31 C117.96 132.38 118.18 131.44 118.4 130.48 C119.12 127.4 119.86 124.32 120.62 121.25 C120.97 119.84 120.97 119.84 121.33 118.4 C122.82 112.75 124.81 107.76 127.57 102.6 C128.8 100.22 129.77 97.81 130.75 95.31 C135.43 85.91 141.47 78.73 148.75 71.31 C149.51 70.52 150.27 69.73 151.06 68.92 C162.94 56.79 179.03 48.19 196.24 47.93 C214.74 47.97 227.61 51.37 241.44 64.44 C256.85 80.61 265.47 103.86 268.38 125.75 C268.5 126.6 268.62 127.45 268.74 128.33 C271.88 151.05 272.18 174.61 268.75 197.31 C268.59 198.4 268.59 198.4 268.43 199.51 C260.68 250.49 233.1 300.96 196.75 337.31 C196 341.22 196.08 343.22 198.18 346.65 C200.27 349.31 202.46 351.82 204.75 354.31 C205.54 355.19 206.34 356.06 207.16 356.96 C214.88 365.1 223.73 372.09 235.31 372.69 C252.44 372.2 265.91 362 277.23 350.11 C285.78 340.63 286.06 333.39 286.32 320.99 C286.35 319.95 286.38 318.91 286.41 317.84 C286.43 316.43 286.43 316.43 286.46 314.99 C286.77 312.09 287.45 309.92 288.75 307.31 C291.62 305.83 294.54 305.44 297.75 305.31 C302.07 306.91 303.72 309.27 305.75 313.31 C306.23 316.49 306.23 316.49 306.38 320.05 C306.48 322.03 306.48 322.03 306.58 324.04 C306.64 325.42 306.69 326.8 306.75 328.19 C307.14 337.69 307.99 346.71 310.03 356.01 C310.7 359.1 311.26 362.19 311.75 365.31 C313.59 366.08 313.59 366.08 315.75 366.31 C323.98 359.74 325.44 344.97 327.61 335.39 C331.52 318.13 331.52 318.13 335.75 315.31 C338.31 314.94 338.31 314.94 341.19 314.88 C342.13 314.84 343.08 314.8 344.06 314.75 C347.82 315.53 348.65 317.17 350.75 320.31 C351.43 323.14 351.43 323.14 351.69 326.21 C351.8 327.35 351.91 328.48 352.02 329.64 C352.11 330.83 352.21 332.02 352.31 333.25 C352.55 335.7 352.79 338.14 353.04 340.59 C353.16 341.76 353.27 342.93 353.4 344.13 C354.05 349.98 355.17 355.63 356.75 361.31 C357.02 362.32 357.3 363.33 357.58 364.38 C359.51 370.53 361.86 375.21 367.75 378.31 C370.39 378.88 370.39 378.88 372.75 377.31 C380.42 370.69 382.65 361.28 384.94 351.81 C385.1 351.12 385.27 350.44 385.44 349.73 C388.05 338.33 387.82 327.03 387.62 315.39 C387.51 303.53 387.51 303.53 389.75 298.31 C394.01 295.47 397.75 295.57 402.75 296.31 C407.53 299.46 409.55 304.52 412.15 309.46 C417.67 319.29 424.6 326.37 435.03 330.65 C438.69 331.54 441.99 331.42 445.75 331.31 C445.93 330.03 446.11 328.75 446.3 327.44 C446.55 325.73 446.81 324.02 447.06 322.31 C447.24 321.05 447.24 321.05 447.42 319.77 C448.4 313.29 449.51 306.88 453.94 301.81 C457.06 300.15 459.21 299.77 462.69 299.59 C466.1 300.79 468.04 303.24 469.75 306.31 C470.39 309.63 470.26 312.84 470.13 316.21 C470.12 317.15 470.1 318.1 470.09 319.08 C470.04 322.09 469.96 325.11 469.88 328.12 C469.8 331.13 469.73 334.14 469.68 337.14 C469.65 339.01 469.6 340.87 469.54 342.74 C469.43 348.62 470.01 354.02 472.75 359.31 C476.2 362.61 478.92 363.29 483.69 363.44 C492.23 361.76 499.28 353.6 504.75 347.31 C505.08 346.32 505.41 345.33 505.75 344.31 C506.74 343.65 507.73 342.99 508.75 342.31 C510.05 338.24 509.78 334.24 509.64 330 C509.6 328.58 509.57 327.16 509.54 325.74 C509.5 323.52 509.44 321.31 509.35 319.09 C509.27 316.93 509.23 314.78 509.2 312.62 C509.14 310.7 509.14 310.7 509.08 308.74 C509.78 305.16 510.05 304.63 512.65 302.4 C517.06 299.43 518.55 299.41 523.75 300.31 C529 305.09 529.63 309.29 530.06 316.19 C530.14 317.07 530.21 317.95 530.28 318.85 C530.46 321 530.61 323.16 530.75 325.31 C535.02 323.42 537.15 320.49 539.88 316.81 C548.84 305.11 557.73 295.37 572.75 292.31 C578.42 291.68 582.75 292.35 587.75 295.31 C592.24 300.17 594.87 304.35 594.88 311.07 C594.88 312 594.89 312.94 594.89 313.91 C594.88 314.89 594.88 315.87 594.88 316.88 C594.88 317.83 594.88 318.78 594.89 319.76 C594.88 325.16 594.58 330.42 593.99 335.78 C593.56 340.39 593.53 345 593.5 349.62 C593.48 350.59 593.46 351.55 593.44 352.54 C593.37 359.44 593.37 359.44 596.75 365.31 C599.43 367.57 599.43 367.57 601.73 367.08 C609.99 363.93 614.28 355.36 618.75 348.31 C619.79 346.81 620.83 345.31 621.88 343.81 C625.37 338.6 628.05 332.97 630.75 327.31 C631.74 327.97 632.73 328.63 633.75 329.31 C634.01 344.73 623.61 362.46 613.12 373.38 C605.95 379.95 599.58 383.91 589.6 383.68 C584.08 382.97 579.78 380.68 576.15 376.45 C568.54 365.03 568.75 350.44 570.75 337.38 C572.12 328.03 571.92 318.74 571.75 309.31 C569.85 308.69 569.85 308.69 567.75 308.31 C559.14 314.27 553.91 324.37 549.93 333.73 C548.75 336.31 548.75 336.31 547.26 338.74 C545.56 341.64 544.42 344.54 543.25 347.69 C540.58 354.79 540.58 354.79 539.12 358.06 C538.04 360.62 537.12 363.12 536.25 365.75 C536 366.51 535.75 367.27 535.49 368.05 C535.01 369.51 534.55 370.98 534.11 372.45 C532.47 377.45 530.28 381.42 525.75 384.31 C520.59 385.14 517.13 384.13 512.75 381.31 C511.8 378.46 511.56 376.4 511.43 373.43 C511.39 372.49 511.35 371.55 511.31 370.58 C511.25 369.12 511.25 369.12 511.19 367.62 C511.14 366.64 511.1 365.65 511.06 364.63 C510.95 362.19 510.85 359.75 510.75 357.31 C506.71 359.16 504.13 361.87 501.12 365.06 C493.02 373.33 485.91 378.07 474.08 379.32 C465.52 379.31 458.84 373.92 452.75 368.31 C447.52 361.88 446.48 354.9 446.12 346.88 C446.07 345.78 446.07 345.78 446.01 344.66 C445.91 342.88 445.83 341.09 445.75 339.31 C444.75 339.29 443.74 339.26 442.71 339.23 C431.86 338.83 420.91 337.71 411.75 331.31 C411.75 330.65 411.75 329.99 411.75 329.31 C411.09 329.31 410.43 329.31 409.75 329.31 C409.62 330.15 409.5 330.99 409.37 331.86 C408.89 335.05 408.39 338.23 407.89 341.42 C407.67 342.78 407.47 344.15 407.26 345.51 C405.86 354.94 403.61 363.54 399.75 372.31 C399.29 373.35 399.29 373.35 398.83 374.41 C396.25 379.55 392.1 382.75 387.75 386.31 C387.09 386.97 386.43 387.63 385.75 388.31 C376.89 392.23 366.58 393.04 357.44 389.69 C348.76 385.66 343.25 380.05 337.75 372.31 C334.83 373.67 332.45 375.24 329.94 377.25 C324.57 381.31 319.55 383.91 312.72 383.59 C306.3 382.68 300.27 378.87 295.75 374.31 C294.03 371.43 292.86 368.48 291.75 365.31 C291.38 364.45 291.01 363.58 290.62 362.69 C289.49 359.61 288.62 356.48 287.75 353.31 C284.48 356.48 281.41 359.79 278.38 363.19 C276.83 364.9 275.29 366.61 273.75 368.31 C273.18 368.95 272.62 369.58 272.04 370.23 C266.99 375.61 261.06 379.55 254.75 383.31 C253.98 383.77 253.21 384.23 252.42 384.71 C243.73 389.01 232.13 388.66 222.79 386.69 C220.28 385.76 218.08 384.63 215.75 383.31 C214.12 382.49 214.12 382.49 212.46 381.65 C204.77 377.64 198.59 372.87 192.37 366.83 C189.8 364.27 189.8 364.27 186.91 362.11 C186.2 361.52 185.48 360.92 184.75 360.31 C184.75 359.65 184.75 358.99 184.75 358.31 C184.09 358.31 183.43 358.31 182.75 358.31 C182.09 357.32 181.43 356.33 180.75 355.31 C177.28 355.96 174.88 357.33 171.94 359.25 C170.98 359.87 170.01 360.5 169.02 361.14 C166.67 362.7 164.32 364.28 161.98 365.86 C161.33 366.3 160.68 366.73 160.01 367.18 C158.75 368.04 157.49 368.9 156.23 369.76 C152.48 372.3 148.68 374.45 144.6 376.41 C142.72 377.33 140.9 378.31 139.06 379.31 C126.03 385.63 111.71 387.72 97.43 384.58 C95.01 383.68 92.94 382.66 90.75 381.31 C90.09 380.95 89.43 380.59 88.75 380.21 C83.04 376.7 80.66 371.96 79.07 365.57 C78.57 363.16 78.13 360.75 77.75 358.31 C77.09 358.31 76.43 358.31 75.75 358.31 C75.68 358.85 75.6 359.39 75.52 359.95 C74.44 363.26 72.53 365.46 70.38 368.19 C69.93 368.75 69.49 369.32 69.03 369.9 C68.08 371.1 67.14 372.3 66.19 373.5 C64.79 375.26 63.41 377.04 62.03 378.82 C50.17 394.1 37.38 408.54 24.42 422.89 C21.01 426.68 17.6 430.47 14.25 434.31 C13.08 435.65 11.92 436.98 10.75 438.31 C10.17 438.98 9.59 439.64 9 440.33 C2.29 447.92 -4.83 455.08 -12 462.24 C-14.12 464.37 -16.23 466.5 -18.35 468.63 C-25.68 476 -33.06 482.9 -41.25 489.31 C-42.49 490.35 -43.73 491.4 -44.96 492.46 C-45.48 492.91 -46.01 493.36 -46.54 493.82 C-47.58 494.71 -48.61 495.6 -49.64 496.49 C-53.02 499.39 -56.52 501.89 -60.25 504.31 C-62.36 505.77 -64.46 507.23 -66.56 508.69 C-67.72 509.49 -68.87 510.29 -70.03 511.09 C-71.87 512.36 -73.7 513.63 -75.53 514.91 C-82.79 519.91 -90.54 524.06 -98.25 528.31 C-99.28 528.88 -100.31 529.46 -101.38 530.05 C-103.99 531.49 -106.62 532.9 -109.25 534.31 C-110.01 534.73 -110.77 535.15 -111.55 535.58 C-118.77 539.41 -126.38 541.98 -134.1 544.58 C-136.12 545.27 -138.12 545.98 -140.12 546.7 C-149.08 549.85 -157.89 551.87 -167.25 553.31 C-168.1 553.45 -168.94 553.58 -169.81 553.71 C-199.41 557.47 -228.72 551.54 -252.69 533.44 C-273.98 515.39 -281.64 490.49 -283.94 463.68 C-286.15 434.32 -277.69 404.25 -264.25 378.31 C-263.56 376.94 -262.87 375.56 -262.19 374.19 C-261.86 373.54 -261.54 372.9 -261.21 372.23 C-260.57 370.96 -259.94 369.68 -259.32 368.39 C-248.28 345.66 -231.92 325.11 -214.65 306.81 C-212.54 304.55 -210.49 302.24 -208.44 299.94 C-203.07 293.96 -197.49 288.43 -191.41 283.19 C-189.05 281.14 -186.74 279.04 -184.44 276.94 C-167.57 261.74 -149.01 247.83 -129.77 235.76 C-128.96 235.24 -128.15 234.72 -127.31 234.19 C-126.22 233.5 -126.22 233.5 -125.1 232.8 C-123.05 231.15 -122.24 229.73 -121.25 227.31 C-121.91 227.31 -122.57 227.31 -123.25 227.31 C-123.25 226.65 -123.25 225.99 -123.25 225.31 C-124.05 225.23 -124.85 225.15 -125.67 225.07 C-130.31 224.09 -134.24 222.24 -138.5 220.19 C-139.34 219.78 -140.19 219.38 -141.06 218.96 C-149.42 214.87 -156.96 210.28 -163.25 203.31 C-163.81 202.74 -164.38 202.17 -164.96 201.58 C-176.29 189.63 -176.84 173.87 -176.56 158.22 C-176 143.94 -171.75 131.88 -165.25 119.31 C-164.74 118.25 -164.23 117.19 -163.71 116.1 C-156.33 100.74 -146.15 87.33 -135.25 74.31 C-134.06 72.85 -134.06 72.85 -132.86 71.35 C-119.81 55.44 -104.74 39.69 -88.14 27.48 C-85.29 25.34 -82.72 23.06 -80.12 20.62 C-72.35 13.47 -62.99 7.16 -53.19 3.13 C-51.83 2.56 -50.48 1.94 -49.15 1.3 C-35.28 -5.3 -14 -7.27 0 0 Z " fill="#FAFBFC" transform="translate(382.25,41.6875)"/>
<path d="M0 0 C17.01 14.19 23.65 34.13 26.88 55.44 C27.18 57.29 27.18 57.29 27.5 59.19 C29.1 69.91 29.09 80.69 29.12 91.5 C29.13 92.26 29.14 93.02 29.14 93.8 C29.22 109.19 27.58 124.07 24.62 139.19 C24.3 140.84 24.3 140.84 23.97 142.53 C21.86 153.02 19.16 163.26 15.88 173.44 C15.65 174.15 15.42 174.85 15.19 175.58 C11.01 188.25 5.13 200.75 -2.35 211.81 C-4.03 214.3 -5.13 216.61 -6.12 219.44 C-6.78 219.44 -7.44 219.44 -8.12 219.44 C-8.39 220.15 -8.65 220.87 -8.92 221.61 C-14.16 233.93 -24.71 246.02 -34.12 255.44 C-36.44 255.44 -36.44 255.44 -39.12 254.44 C-43.52 249.86 -45.99 245 -48.56 239.25 C-50.98 233.97 -53.4 228.78 -56.31 223.75 C-59.8 217.55 -62.06 210.93 -64.46 204.26 C-65.34 201.86 -66.29 199.49 -67.25 197.12 C-71.04 187.73 -74.13 178.34 -76.56 168.5 C-76.86 167.3 -77.16 166.1 -77.47 164.86 C-79.59 156.1 -81.41 147.31 -83 138.44 C-83.2 137.31 -83.41 136.19 -83.61 135.03 C-85.76 122.59 -86.34 110.29 -86.31 97.69 C-86.31 96.98 -86.31 96.27 -86.31 95.54 C-86.25 78.61 -83.95 63.46 -79.56 47.1 C-79.22 45.82 -79.22 45.82 -78.87 44.52 C-78.12 42.44 -78.12 42.44 -76.12 40.44 C-75.73 39.32 -75.34 38.21 -74.94 37.06 C-69.56 22.25 -59.45 11.78 -47.12 2.44 C-46.46 1.92 -45.79 1.4 -45.1 0.87 C-32.81 -7.79 -12.49 -8.73 0 0 Z " fill="#201E1F" transform="translate(602.125,107.5625)"/>
<path d="M0 0 C4.56 0.56 4.56 0.56 6 2 C6.08 4.26 6.08 6.51 6.06 8.77 C6.05 10.22 6.04 11.67 6.04 13.12 C6.03 13.88 6.02 14.65 6.02 15.44 C5.93 27.96 5.96 40.48 6.31 53 C6.34 54.17 6.36 55.35 6.38 56.55 C6.43 58.17 6.43 58.17 6.49 59.81 C6.51 60.75 6.54 61.68 6.57 62.64 C7.07 65.4 7.76 66.35 10 68 C12.07 68.07 12.07 68.07 14 67 C22.35 57.06 21.62 44.67 21.69 32.44 C21.73 29 21.77 25.56 21.82 22.12 C21.84 21.31 21.85 20.5 21.86 19.66 C22.1 4.34 22.1 4.34 25 0 C27.38 0.31 27.38 0.31 30 1 C32.32 4.49 32.19 5.57 31.98 9.64 C31.92 10.79 31.87 11.93 31.82 13.1 C31.72 14.94 31.72 14.94 31.62 16.81 C31.51 19.36 31.41 21.91 31.3 24.46 C31.25 25.73 31.19 27 31.14 28.32 C30.28 47.79 30.28 47.79 33 67 C34.05 68.23 34.05 68.23 36.31 68.44 C39.22 68.27 39.22 68.27 40.95 65.63 C43.69 61.26 45.01 56.39 46.5 51.5 C49.15 42.82 51.47 36.15 59.25 30.9 C61.58 29.7 63.43 29.61 66 30 C66.33 29.34 66.66 28.68 67 28 C71.96 28.65 75.9 29.16 79.94 32.25 C85.33 39.44 85.33 45 85.06 53.75 C85 56.02 84.95 58.28 84.91 60.55 C84.88 61.55 84.85 62.54 84.82 63.57 C84.75 66.18 84.75 66.18 87 68 C89.58 68.17 89.58 68.17 92 68 C94.84 63.24 97.14 58.54 99.12 53.38 C99.38 52.73 99.63 52.09 99.89 51.43 C100.96 48.7 102.01 45.97 103.07 43.23 C105.23 38.07 108.21 33.91 113 31 C119.59 28.86 125.23 29.08 132 30 C131.99 28.74 131.99 28.74 131.98 27.46 C131.97 24.36 131.95 21.25 131.95 18.15 C131.94 16.14 131.92 14.13 131.91 12.13 C131.91 10.24 131.91 10.24 131.9 8.32 C131.89 6.58 131.89 6.58 131.89 4.8 C132 2 132 2 133 0 C135.38 -0.12 135.38 -0.12 138 0 C140.66 2.66 140.26 3.94 140.29 7.66 C140.3 8.84 140.31 10.03 140.33 11.25 C140.34 13.18 140.34 13.18 140.34 15.14 C140.37 17.16 140.39 19.17 140.41 21.18 C140.45 24.73 140.47 28.27 140.5 31.81 C140.54 36.7 140.58 41.59 140.64 46.47 C140.66 48.43 140.66 50.38 140.67 52.34 C140.69 53.53 140.7 54.73 140.71 55.96 C140.72 57.53 140.72 57.53 140.73 59.13 C141.03 62.37 141.62 65.62 144 68 C145.67 68.04 147.33 68.04 149 68 C154.07 58.95 154.07 58.95 157.12 49.12 C158.42 41.96 161.99 37.46 167.75 33.12 C172.97 29.75 177.85 27.39 184.16 28.32 C188.82 29.7 191.33 31.99 193.99 35.99 C196.59 41.17 197.36 46.14 197.62 51.88 C197.66 52.56 197.7 53.25 197.74 53.96 C197.84 55.64 197.92 57.32 198 59 C202.93 57.66 206 56.7 208.81 52.31 C209.57 50.89 210.3 49.45 211 48 C211.32 47.4 211.64 46.81 211.97 46.19 C214.56 40.61 214.13 35.13 213.81 29.07 C214 26 214 26 215.35 24.08 C217 23 217 23 219.38 23.06 C222 24 222 24 224.12 25.81 C227.02 28.01 229.15 28.82 232.56 29.94 C235.83 31.09 237.91 31.93 240.62 34.12 C244.49 42.22 242.73 48.81 239.93 57 C238.81 60.61 238.58 63.27 239 67 C240.04 68.25 240.04 68.25 242.31 68.25 C245.59 67.94 246.68 67.32 249 65 C250.66 62.01 252.02 58.96 253.38 55.81 C255.2 52.65 256.76 51.58 260 50 C261.32 51.98 262.64 53.96 264 56 C260.19 64.2 255.68 71.93 248 77 C242.99 78.68 238.51 78.17 233.7 76.07 C230.73 74.2 229.98 72.32 229 69 C227.97 62.41 229.76 57.02 232.12 50.89 C233.08 47.74 233.27 45.28 233 42 C231.44 39.52 231.44 39.52 229 38 C226.4 37.86 226.4 37.86 224 38 C223.71 39.13 223.42 40.27 223.12 41.44 C218.42 58.99 218.42 58.99 211.26 64.29 C207.24 66.61 203.39 67.31 198.81 67.94 C193.65 68.67 191.24 69.72 188 74 C185.72 76.55 184.42 77.54 181 78 C172.47 78.41 167.37 76.56 160.54 71.44 C160.03 70.96 159.52 70.49 159 70 C159 69.34 159 68.68 159 68 C158.34 68 157.68 68 157 68 C156.94 68.74 156.88 69.49 156.81 70.25 C156 73 156 73 154.12 75.31 C149.46 77.83 145.19 77.76 140 77 C135.96 74.94 133.07 72.31 130 69 C129.94 69.76 129.88 70.53 129.81 71.31 C129 74 129 74 126.94 75.75 C120.33 78.56 115.54 78.25 108.88 76.08 C106.55 74.74 105.97 73.46 105 71 C103.68 71 102.36 71 101 71 C100.38 71.78 99.76 72.57 99.12 73.38 C96.52 76.59 95.04 77.22 91 78 C86.25 78.16 83.74 77.66 80.12 74.44 C79.42 73.63 78.72 72.83 78 72 C75.65 71.77 75.65 71.77 73.44 74.44 C69.61 77.7 65.96 78.29 61 78 C57.83 77.36 54.83 76.59 52 75 C51.67 74.01 51.34 73.02 51 72 C48.1 72.19 48.1 72.19 45 73 C44.32 73.99 44.32 73.99 43.62 75 C42 77 42 77 38.25 77.94 C33.86 78.27 30.84 77.22 27 75 C24.56 72.31 24.56 72.31 23 70 C22.67 70.99 22.34 71.98 22 73 C18.71 76.39 15.8 77.75 11.05 78.09 C7.37 77.93 5.12 76.94 2 75 C0.03 72.48 -1.54 69.84 -3 67 C-12.62 67.18 -12.62 67.18 -21.26 70.62 C-22.77 72.44 -22.77 72.44 -23.86 74.34 C-25.34 76.49 -26.57 77.09 -29 78 C-36.49 79.24 -41.68 77.71 -48 73.7 C-50.09 71.93 -50.99 70.52 -52 68 C-54.02 69.93 -55.42 71.63 -57 74 C-60.96 77.03 -65.05 78.15 -70 78 C-74.06 77.19 -77.06 75.94 -80 73 C-82.72 64.84 -80.9 57.53 -77.88 49.73 C-76.98 46.93 -76.71 44.91 -77 42 C-78.58 39.58 -78.58 39.58 -81 38 C-83.6 37.86 -83.6 37.86 -86 38 C-86.17 38.62 -86.34 39.23 -86.52 39.87 C-88.22 45.84 -90.33 51.4 -93 57 C-93.43 57.97 -93.87 58.94 -94.31 59.94 C-102.7 75.17 -102.7 75.17 -110.91 77.55 C-116.13 78.54 -119.38 77.54 -124 75 C-126.52 72.98 -126.95 72.15 -128 69 C-128.5 63.59 -127.69 59.62 -126 54.44 C-123.8 47.82 -123.8 47.82 -124 41 C-125.58 38.92 -125.58 38.92 -128 38 C-130.67 37.75 -130.67 37.75 -133 38 C-133.25 39.07 -133.5 40.14 -133.75 41.25 C-135.97 49.94 -138.79 58.04 -142.94 66 C-143.26 66.63 -143.58 67.27 -143.92 67.92 C-146.06 71.89 -148.22 74.54 -152 77 C-158.05 78.46 -161.42 78.11 -167 75 C-169.44 72.81 -169.44 72.81 -171 71 C-171.4 71.42 -171.8 71.84 -172.21 72.28 C-176.24 76.15 -179.25 77.85 -184.87 78.1 C-191.01 77.81 -194.75 75.15 -199 71 C-199.67 68.84 -199.67 68.84 -200 67 C-200.65 67.46 -201.31 67.92 -201.98 68.39 C-212.04 75.15 -220.72 78.32 -232.81 78.44 C-233.61 78.45 -234.41 78.46 -235.24 78.47 C-241.3 78.38 -246.54 77.46 -251 73 C-251.31 70 -251.31 70 -251 67 C-248 65 -248 65 -246.19 65.19 C-244 66 -244 66 -241.19 67.62 C-237.21 69.34 -235.14 69.15 -231 68 C-227.25 65.04 -226.2 62.67 -225.62 57.94 C-226.36 50.27 -230.21 43.96 -236 39 C-240.81 40.6 -242.61 44.7 -245 49 C-245.53 50.44 -246.01 51.9 -246.44 53.38 C-249.12 62.22 -253.95 69.13 -261.89 73.88 C-269.34 77.83 -277.26 79.59 -285.59 77.28 C-290.89 75.31 -295 73 -299 69 C-299 68.34 -299 67.68 -299 67 C-299.66 67 -300.32 67 -301 67 C-303.79 59.33 -304.52 50.86 -301.38 43.19 C-298.46 37.57 -295.16 32.62 -289.19 30.06 C-283.79 28.4 -278.48 28.01 -273.19 30.12 C-269.93 32.92 -267.47 35.63 -266.61 39.96 C-266.33 45.06 -267.66 48.03 -271 52 C-275.83 56.83 -282.26 59.17 -289.06 59.19 C-290.52 59.09 -290.52 59.09 -292 59 C-291.64 62.23 -290.34 64.69 -288.01 66.96 C-283.25 69.42 -277.25 68.92 -272 69 C-272 68.34 -272 67.68 -272 67 C-271.32 66.96 -270.64 66.92 -269.94 66.88 C-265.65 65.6 -262.88 63.41 -260 60 C-258.83 57.64 -257.96 55.26 -257.08 52.78 C-253.84 44.44 -249.2 37.85 -242.67 31.82 C-240.14 29.06 -239.61 26.64 -239 23 C-237.02 22.67 -235.04 22.34 -233 22 C-231.33 24.58 -230.06 26.78 -229.25 29.75 C-228.03 32.92 -226.82 34.6 -224.69 37.19 C-217.06 46.76 -215.2 54.82 -216 67 C-207.56 61.98 -202.12 54.84 -199.06 45.5 C-196.45 38.16 -192.61 33.99 -186 30 C-180.82 28.27 -175.2 28.09 -170.12 30.19 C-167.13 32.74 -164.76 35.47 -163 39 C-162.95 40.84 -162.96 42.68 -163.01 44.52 C-163.03 46.18 -163.03 46.18 -163.06 47.87 C-163.1 50.2 -163.15 52.53 -163.21 54.86 C-163.23 55.97 -163.24 57.07 -163.26 58.21 C-163.28 59.22 -163.3 60.24 -163.32 61.28 C-162.95 64.43 -162.2 65.75 -160 68 C-157.4 68.8 -157.4 68.8 -155 69 C-154.71 68.22 -154.42 67.43 -154.12 66.62 C-153 64 -153 64 -151 62 C-150.48 60.31 -150.03 58.6 -149.62 56.88 C-148.32 51.79 -146.47 47.62 -144 43 C-142.87 39.61 -142.94 37.06 -143 33.5 C-143.11 27.33 -143.11 27.33 -142 24 C-139.25 23.25 -139.25 23.25 -136 23 C-135.41 23.6 -134.81 24.21 -134.2 24.83 C-130.78 28.2 -126.59 29.08 -122.09 30.56 C-118.57 32.2 -117.11 33.78 -115 37 C-112.49 44.53 -114.6 50.61 -117.12 57.85 C-118.02 61.07 -118.23 63.67 -118 67 C-116.9 68.3 -116.9 68.3 -114.19 68.38 C-110.87 68.32 -110.87 68.32 -108.81 65.81 C-108.21 64.88 -107.62 63.96 -107 63 C-106.2 61.82 -106.2 61.82 -105.38 60.62 C-103.85 57.94 -103.85 57.94 -103 54.5 C-102.04 51.14 -100.8 48.96 -99 46 C-96.11 40.4 -95.99 36.46 -96.85 30.28 C-97 28 -97 28 -95.88 24.88 C-94 23 -94 23 -91.31 22.69 C-90.55 22.79 -89.79 22.89 -89 23 C-88.67 23.99 -88.34 24.98 -88 26 C-85.71 27.14 -85.71 27.14 -83 28 C-81.29 28.64 -79.58 29.29 -77.88 29.94 C-76.6 30.42 -76.6 30.42 -75.3 30.9 C-71.7 32.62 -70.2 34.7 -68 38 C-67.73 41.07 -67.73 41.07 -67.75 44.56 C-67.74 46.3 -67.74 46.3 -67.73 48.07 C-68 51 -68 51 -70 53 C-70.47 55.56 -70.83 58.05 -71.12 60.62 C-71.25 61.68 -71.25 61.68 -71.39 62.77 C-71.6 64.51 -71.8 66.25 -72 68 C-67.07 68.45 -67.07 68.45 -62.75 66.41 C-60.65 63.52 -59.35 60.68 -58 57.38 C-57.74 56.76 -57.49 56.14 -57.22 55.5 C-55.71 51.84 -54.29 48.14 -52.88 44.44 C-49.46 36.03 -44.19 32.6 -36 29 C-31.95 27.75 -28.9 27.7 -24.81 29.06 C-18.99 33.07 -15.55 38.08 -14 45 C-13.48 49.66 -13.19 54.31 -13 59 C-7.69 57.08 -7.69 57.08 -4 53 C-3.77 50 -3.65 47.09 -3.62 44.09 C-3.6 43.21 -3.59 42.33 -3.57 41.42 C-3.52 38.59 -3.48 35.76 -3.44 32.94 C-3.39 30.14 -3.35 27.33 -3.29 24.53 C-3.26 22.79 -3.24 21.05 -3.21 19.31 C-2.94 2.94 -2.94 2.94 0 0 Z " fill="#F9FAFB" transform="translate(727,570)"/>
<path d="M0 0 C2.31 -0.25 2.31 -0.25 5 0 C8.42 3.31 8.41 6.34 8.51 10.95 C8.53 11.61 8.55 12.27 8.57 12.95 C8.62 15.05 8.65 17.15 8.69 19.25 C8.72 20.68 8.76 22.1 8.79 23.53 C8.88 27.02 8.94 30.51 9 34 C9.99 34 10.98 34 12 34 C12.62 33.32 12.62 33.32 13.25 32.62 C17.07 29.08 22 28.77 27 28.88 C32.2 29.53 34.5 31.83 37.72 35.8 C40.61 40.78 40.12 46.23 40.06 51.81 C40.06 52.6 40.05 53.39 40.05 54.2 C40.04 56.13 40.02 58.07 40 60 C40.94 59.68 41.89 59.36 42.86 59.02 C46 58 46 58 48.25 57.62 C50.2 57.14 50.2 57.14 51.12 55.06 C51.41 54.38 51.7 53.7 52 53 C54 51 54 51 56.62 50.88 C57.41 50.92 58.19 50.96 59 51 C60.25 53.12 60.25 53.12 61 56 C58 61.88 53.98 65.41 47.88 67.75 C42.61 69.39 37.47 69.28 32 69 C31.74 69.61 31.48 70.23 31.21 70.86 C29.88 73.21 28.97 73.93 26.62 75.19 C26.04 75.51 25.45 75.83 24.85 76.17 C18.3 79.11 10.18 79.02 3.44 76.75 C-0.14 74.93 -0.56 74.47 -2 71 C-2.47 71.34 -2.95 71.68 -3.43 72.02 C-10.47 76.77 -18.41 79.31 -27 78 C-33.97 75.9 -41.39 73.1 -45.38 66.69 C-48.42 59.85 -48.13 51.34 -46.27 44.21 C-43.59 37.67 -39.3 33.23 -33 30 C-28.34 28.23 -23.04 28.54 -18.25 29.62 C-14.89 31.68 -13.69 33.42 -12 37 C-11.29 41.42 -10.93 45.83 -12.95 49.94 C-17.41 55.58 -23.13 57.87 -30 59 C-32.37 59.14 -34.63 59.1 -37 59 C-36.05 62.42 -35.17 63.87 -32.37 66.13 C-26.49 69.39 -20.53 69.01 -14 68 C-8.71 65.62 -5.83 62.82 -3.42 57.55 C-1.55 52.37 -1.54 47.35 -1.52 41.89 C-1.51 40.85 -1.49 39.81 -1.48 38.74 C-1.43 35.43 -1.4 32.12 -1.38 28.81 C-1.34 25.49 -1.3 22.18 -1.25 18.86 C-1.23 16.8 -1.2 14.74 -1.19 12.68 C-1.18 11.74 -1.17 10.81 -1.16 9.85 C-1.15 9.03 -1.14 8.21 -1.14 7.37 C-0.99 4.84 -0.55 2.47 0 0 Z " fill="#F9FAFB" transform="translate(1128,570)"/>
<path d="M0 0 C4.11 4.7 7.52 9.17 9.8 15.02 C10.16 15.9 10.52 16.78 10.89 17.68 C12.06 21.94 12.15 25.87 12.12 30.27 C12.11 31.54 12.11 31.54 12.1 32.83 C11.91 43.29 9.3 51.82 2.28 59.74 C-4.68 66.4 -12.82 67.28 -22.07 67.46 C-22.81 67.48 -23.55 67.5 -24.31 67.52 C-27.6 67.51 -29.72 67.37 -32.4 65.39 C-34.74 62.31 -34.71 60.49 -34.73 56.65 C-34.74 55.35 -34.76 54.06 -34.78 52.73 C-34.77 51.33 -34.77 49.92 -34.76 48.52 C-34.77 47.07 -34.77 45.63 -34.78 44.18 C-34.79 41.16 -34.79 38.14 -34.77 35.11 C-34.75 31.24 -34.78 27.36 -34.81 23.48 C-34.84 20.5 -34.83 17.52 -34.83 14.54 C-34.82 13.11 -34.83 11.68 -34.85 10.25 C-34.86 8.26 -34.85 6.26 -34.83 4.26 C-34.83 3.13 -34.82 1.99 -34.82 0.82 C-34.2 -1.98 -34.2 -1.98 -31.84 -3.82 C-22.15 -8.06 -7.95 -7.18 0 0 Z " fill="#F8F8F9" transform="translate(398.1953125,579.98046875)"/>
<path d="M0 0 C8.75 6.44 18.05 16.03 23.23 25.64 C23.3 29.23 22.48 30.37 20.03 33 C7.27 43.41 -11.51 58.13 -28.77 56.64 C-32.02 54.83 -32.02 54.83 -34.77 52.64 C-35.37 52.17 -35.97 51.69 -36.59 51.2 C-40.45 46.12 -39.17 36.98 -38.46 31.02 C-36.28 18.64 -30.17 8.17 -20.7 -0.05 C-14.77 -4.08 -6.05 -3.43 0 0 Z " fill="#1F1E1E" transform="translate(518.7734375,358.359375)"/>
<path d="M0 0 C3.78 3.2 4.84 5.86 6 10.62 C6.16 11.27 6.32 11.92 6.49 12.59 C7.01 14.72 7.51 16.86 8 19 C8.18 19.76 8.35 20.52 8.53 21.3 C10.5 29.84 12.3 38.4 14 47 C14.15 46.44 14.3 45.89 14.46 45.31 C16.01 39.58 17.57 33.86 19.14 28.14 C19.7 26.08 20.27 24.02 20.82 21.96 C21.6 19.1 22.39 16.24 23.19 13.38 C23.42 12.49 23.66 11.61 23.91 10.7 C26.01 3.19 26.01 3.19 29 0 C32.56 1.19 33.13 1.81 35 5 C35.79 7.81 36.46 10.53 37.04 13.38 C37.22 14.19 37.39 15 37.57 15.83 C37.93 17.53 38.29 19.24 38.64 20.95 C39.19 23.56 39.74 26.17 40.3 28.78 C40.65 30.44 41.01 32.1 41.36 33.75 C41.52 34.54 41.69 35.32 41.86 36.12 C42.48 39.14 43 41.91 43 45 C43.66 45 44.32 45 45 45 C45.32 43.78 45.64 42.56 45.96 41.3 C47.14 36.76 48.34 32.23 49.53 27.7 C50.05 25.74 50.56 23.78 51.07 21.82 C51.81 19 52.55 16.18 53.3 13.36 C53.53 12.48 53.75 11.61 53.98 10.7 C56 3.19 56 3.19 59 0 C62.16 1.37 62.99 1.99 65 5 C64.87 7.04 64.87 7.04 64.32 9.41 C64.12 10.3 63.92 11.19 63.71 12.11 C63.48 13.07 63.24 14.02 63 15 C62.77 15.96 62.53 16.92 62.29 17.91 C61.5 21.07 60.68 24.23 59.85 27.39 C59.55 28.54 59.25 29.7 58.94 30.88 C58.3 33.3 57.67 35.71 57.03 38.12 C56.06 41.82 55.1 45.51 54.14 49.21 C53.52 51.56 52.91 53.92 52.29 56.27 C51.86 57.92 51.86 57.92 51.42 59.61 C51.15 60.64 50.88 61.67 50.59 62.73 C50.36 63.63 50.12 64.53 49.88 65.45 C48.92 68.24 47.6 70.53 46 73 C41.25 72.25 41.25 72.25 39 70 C38.27 67.61 38.27 67.61 37.6 64.61 C37.35 63.51 37.1 62.42 36.84 61.29 C36.59 60.12 36.33 58.95 36.06 57.75 C35.8 56.57 35.53 55.39 35.26 54.18 C33.63 46.95 32.04 39.7 30.54 32.44 C30.02 29.88 30.02 29.88 29 27 C28.87 27.66 28.73 28.33 28.6 29.01 C28.07 31.67 27.53 34.34 27 37 C26.86 37.75 26.71 38.5 26.56 39.28 C25.43 44.75 24 50.15 22.62 55.56 C22.32 56.79 22.02 58.03 21.7 59.29 C21.4 60.48 21.1 61.66 20.79 62.88 C20.38 64.5 20.38 64.5 19.97 66.15 C19.01 68.96 17.92 70.76 16 73 C13.04 72.39 11.62 71.75 9 70 C8.24 67.94 8.24 67.94 7.68 65.36 C7.47 64.39 7.25 63.43 7.03 62.43 C6.82 61.38 6.6 60.33 6.37 59.25 C6.14 58.17 5.9 57.09 5.66 55.98 C4.91 52.51 4.17 49.04 3.44 45.56 C2.94 43.26 2.44 40.95 1.94 38.64 C0.17 30.44 -1.6 22.25 -3.17 14.01 C-3.33 13.14 -3.5 12.28 -3.67 11.38 C-4.15 7.92 -3.93 5.37 -3 2 C-2.01 1.34 -1.02 0.68 0 0 Z " fill="#F9FAFB" transform="translate(1004,574)"/>
<path d="M0 0 C5 0.08 8.55 0.54 12.88 3.25 C20.25 10.99 23.29 20.09 23.08 30.69 C22.39 39.35 20.65 45.85 13.98 51.69 C7.92 56.18 2.22 56.98 -5.12 56.25 C-6.81 54.57 -6.25 52.5 -6.25 50.2 C-6.26 49.12 -6.26 48.04 -6.26 46.93 C-6.26 45.76 -6.26 44.58 -6.26 43.38 C-6.26 42.18 -6.26 40.99 -6.26 39.75 C-6.26 37.22 -6.26 34.69 -6.26 32.16 C-6.25 28.27 -6.26 24.38 -6.26 20.48 C-6.26 18.03 -6.26 15.58 -6.26 13.12 C-6.26 11.95 -6.26 10.78 -6.26 9.57 C-6.26 8.49 -6.26 7.42 -6.25 6.3 C-6.25 5.35 -6.25 4.4 -6.25 3.41 C-6.01 -0.72 -3.61 0.06 0 0 Z " fill="#201F1F" transform="translate(379.125,582.75)"/>
<path d="M0 0 C3.82 4.04 5.38 7.68 5.81 13.19 C5.64 18.33 3.85 21.21 0.25 24.81 C-3.24 27.35 -5.49 27.45 -9.81 27.31 C-14.92 26.11 -19.24 24.21 -22.62 20.12 C-24.84 14.88 -24.47 10.23 -22.38 5.06 C-20.15 1.07 -17.42 -0.56 -13.19 -2.13 C-8.22 -3.3 -4.45 -2.67 0 0 Z " fill="#0D0E10" transform="translate(939.8125,488.6875)"/>
<path d="M0 0 C0.72 -0.01 1.43 -0.02 2.17 -0.04 C6.31 -0.05 9.58 0.23 13.25 2.19 C16.14 5.58 16.82 8.75 16.69 13.2 C16.17 15.56 15.32 16.61 13.69 18.38 C11 20.87 11 20.87 11.19 23.62 C12.96 27.89 14.95 31.89 18.25 35.19 C15.77 35.68 15.77 35.68 13.25 36.19 C13.25 35.53 13.25 34.87 13.25 34.19 C12.59 34.19 11.93 34.19 11.25 34.19 C10.64 33.01 10.64 33.01 10.01 31.82 C9.47 30.8 8.93 29.79 8.38 28.75 C7.84 27.74 7.31 26.73 6.76 25.69 C5.49 23.09 5.49 23.09 3.25 22.19 C1.88 22.12 0.5 22.1 -0.88 22.12 C-2.15 22.15 -3.43 22.17 -4.75 22.19 C-4.75 26.81 -4.75 31.43 -4.75 36.19 C-6.07 35.86 -7.39 35.53 -8.75 35.19 C-8.77 30.36 -8.79 25.54 -8.8 20.72 C-8.81 19.07 -8.82 17.43 -8.83 15.79 C-8.84 13.43 -8.84 11.08 -8.85 8.72 C-8.85 7.98 -8.86 7.25 -8.86 6.48 C-8.86 4.72 -8.81 2.95 -8.75 1.19 C-6.73 -0.83 -2.76 0 0 0 Z " fill="#F7F8F9" transform="translate(651.75,482.8125)"/>
<path d="M0 0 C6.12 2.78 9.49 8.05 12.27 13.98 C13.41 17.15 13.44 19.69 13 23 C11.69 25.75 11.69 25.75 10 28 C9.59 28.58 9.18 29.15 8.75 29.75 C5.85 31.82 3.52 31.94 0 32 C-1.84 31.13 -1.84 31.13 -3.62 30 C-6.77 27.69 -6.77 27.69 -9.94 28.25 C-10.62 28.5 -11.3 28.75 -12 29 C-12.33 29.99 -12.66 30.98 -13 32 C-13.99 31.67 -14.98 31.34 -16 31 C-15.33 27.45 -13.85 24.75 -12.06 21.62 C-10.42 18.69 -9.05 16.15 -8.06 12.94 C-6.31 8.08 -3.05 4.13 0 0 Z " fill="#1F1D1E" transform="translate(489,608)"/>
<path d="M0 0 C3.18 4.76 2.61 9.86 1.54 15.38 C-0.24 21.44 -3.53 26.53 -8 31 C-11.69 31.42 -13.56 31.25 -16.81 29.38 C-20.11 25.8 -20.06 23.09 -19.93 18.34 C-19.49 11.3 -18.27 7.57 -13.56 2.25 C-9.05 -1.71 -5.81 -1.29 0 0 Z " fill="#0D0E10" transform="translate(856,608)"/>
<path d="M0 0 C4.72 0.82 6.54 3.75 9.25 7.44 C9.71 8.04 10.17 8.64 10.64 9.25 C14 13.72 14 13.72 14 16 C15.98 16.66 17.96 17.32 20 18 C20.41 17.13 20.41 17.13 20.82 16.24 C23.95 10.28 28.66 5.11 33 0 C33.99 0.33 34.98 0.66 36 1 C37.49 4.52 37.11 8.41 37.1 12.17 C37.1 12.85 37.09 13.54 37.09 14.24 C37.09 16.41 37.08 18.58 37.06 20.75 C37.06 22.23 37.05 23.7 37.05 25.18 C37.04 28.78 37.02 32.39 37 36 C35.35 35.67 33.7 35.34 32 35 C32.01 34.04 32.02 33.09 32.04 32.11 C32.09 24.33 31.9 16.73 31 9 C30.47 9.74 29.94 10.47 29.39 11.23 C28.33 12.69 28.33 12.69 27.25 14.19 C26.55 15.15 25.86 16.11 25.14 17.11 C23.15 19.79 21.11 22.41 19 25 C12.56 21.62 8.8 16.08 5 10 C5 9.34 5 8.68 5 8 C4.34 8 3.68 8 3 8 C3.33 8.99 3.66 9.98 4 11 C4.08 12.85 4.11 14.7 4.1 16.54 C4.09 17.62 4.09 18.69 4.09 19.79 C4.08 20.91 4.07 22.03 4.06 23.19 C4.06 24.32 4.05 25.45 4.05 26.62 C4.04 29.41 4.02 32.21 4 35 C2.68 35 1.36 35 0 35 C-1.9 33.1 -1.13 29.75 -1.13 27.23 C-1.13 26.55 -1.13 25.87 -1.14 25.17 C-1.14 23.73 -1.13 22.29 -1.13 20.84 C-1.13 18.64 -1.13 16.44 -1.14 14.23 C-1.14 12.84 -1.13 11.44 -1.13 10.04 C-1.13 8.76 -1.13 7.49 -1.13 6.17 C-1 3 -1 3 0 0 Z " fill="#F6F6F7" transform="translate(494,483)"/>
<path d="M0 0 C2.96 4.43 1.95 7.91 1 13 C-0.76 19.95 -2.59 26.11 -8 31 C-11.23 32.37 -12.45 32.2 -15.75 31 C-18.23 28.8 -18.77 27.5 -19 24.22 C-18.99 16.21 -18.9 9.58 -14 3 C-9.6 -1.12 -5.78 -1.51 0 0 Z " fill="#1F1E1E" transform="translate(801,608)"/>
<path d="M0 0 C3.19 7.83 0.77 14.45 -2 22 C-3.59 25.22 -5.14 27.79 -8 30 C-11.62 30.75 -11.62 30.75 -15 30 C-17.96 27.78 -18.89 26.58 -19.57 22.9 C-19.56 14.95 -18.86 8.51 -14 2 C-9.21 -2.01 -5.81 -3.03 0 0 Z " fill="#1F1E1E" transform="translate(554,609)"/>
<path d="M0 0 C3.26 0.25 4.08 1.09 6.3 3.59 C7.12 4.7 7.94 5.81 8.75 6.94 C9.63 8.12 10.51 9.3 11.39 10.48 C12.05 11.37 12.05 11.37 12.71 12.27 C14.6 14.8 16.54 17.28 18.5 19.75 C19.13 20.55 19.76 21.35 20.41 22.17 C21.88 24.1 21.88 24.1 24 25 C24.03 24.31 24.05 23.63 24.08 22.92 C24.19 19.82 24.31 16.72 24.44 13.62 C24.48 12.54 24.52 11.46 24.56 10.35 C24.6 9.32 24.64 8.29 24.68 7.23 C24.72 6.27 24.76 5.32 24.79 4.34 C25 2 25 2 26 0 C26.99 0.33 27.98 0.66 29 1 C29.33 12.22 29.66 23.44 30 35 C28.02 35.5 28.02 35.5 26 36 C21.97 32.73 18.98 28.53 15.84 24.41 C14.59 22.78 13.32 21.16 12.03 19.56 C11.4 18.78 10.77 17.99 10.12 17.19 C9.55 16.48 8.98 15.77 8.38 15.04 C6.99 12.99 6.43 11.43 6 9 C5.34 9 4.68 9 4 9 C4 17.58 4 26.16 4 35 C2.51 35.5 2.51 35.5 1 36 C0.34 35.67 -0.32 35.34 -1 35 C-1.03 30.67 -1.05 26.33 -1.06 22 C-1.07 20.78 -1.08 19.56 -1.09 18.3 C-1.1 12.1 -0.97 6.13 0 0 Z " fill="#F5F5F6" transform="translate(780,483)"/>
<path d="M0 0 C3.83 1.28 4.17 2.48 6 6 C6.83 8 7.62 10.03 8.38 12.06 C10.43 17.56 12.65 22.96 14.98 28.34 C15.96 30.9 16.55 33.31 17 36 C13.31 35 12.21 34.34 10.19 31 C9 28 9 28 9 26 C0.58 26.5 0.58 26.5 -8 27 C-8.33 28.98 -8.66 30.96 -9 33 C-9.66 33.99 -10.32 34.98 -11 36 C-11.99 36 -12.98 36 -14 36 C-15.34 31.99 -14.23 30.86 -12.38 27.12 C-9.67 21.5 -7.33 15.84 -5.18 9.97 C-2.04 2.04 -2.04 2.04 0 0 Z " fill="#F7F8F9" transform="translate(436,483)"/>
<path d="M0 0 C0.99 0 1.98 0 3 0 C6.86 6.22 9.37 12.56 11.73 19.48 C13.27 23.74 15.12 27.8 17.08 31.89 C18 34 18 34 18 36 C15.31 35.63 14.22 35.25 12.38 33.19 C11 31 11 31 10.3 28.91 C9.11 26.68 9.11 26.68 6.18 26.39 C5.09 26.34 4 26.3 2.88 26.25 C1.78 26.19 0.68 26.14 -0.45 26.08 C-1.29 26.05 -2.13 26.03 -3 26 C-3 25.01 -3 24.02 -3 23 C-3.99 23 -4.98 23 -6 23 C-6.08 23.66 -6.16 24.32 -6.25 25 C-7.25 28.99 -9.07 32.39 -11 36 C-12.32 35.34 -13.64 34.68 -15 34 C-14.72 33.46 -14.44 32.93 -14.14 32.38 C-12.82 29.63 -11.76 26.85 -10.69 24 C-8.96 19.48 -7.21 14.98 -5.38 10.5 C-4.99 9.56 -4.61 8.62 -4.21 7.66 C-2.97 4.93 -1.74 2.44 0 0 Z " fill="#F0F0F1" transform="translate(585,483)"/>
<path d="M0 0 C4.01 3.67 8.8 8.75 9.46 14.32 C9.71 21.28 8.78 25.68 4.19 31 C0.05 34.93 -2.57 35.83 -8.12 36.25 C-15.39 35.76 -20.94 32.25 -25.81 27 C-28.41 22.77 -28.34 18.83 -27.81 14 C-25.79 7.92 -23.33 3.49 -17.75 0.19 C-12.13 -1.94 -5.64 -2 0 0 Z M-21.28 7.77 C-23.92 12.55 -24.43 16.61 -23.81 22 C-21.94 26.58 -19.14 28.71 -14.81 31 C-9.81 32.38 -5.5 32.44 -0.81 30 C2.52 27.37 4.78 24.79 5.74 20.6 C6.03 15.1 4.88 11.1 1.68 6.63 C-1.14 3.55 -4.09 2.33 -8.12 1.56 C-13.09 2.37 -17.97 3.79 -21.28 7.77 Z " fill="#F7F8F9" transform="translate(939.8125,484)"/>
<path d="M0 0 C3.5 1.17 4.09 1.94 6 5 C6.71 6.89 7.35 8.81 7.94 10.75 C9.33 15.12 10.91 19.08 13.05 23.12 C15.12 27.22 17 31.37 17 36 C13.38 34.57 12.06 32.97 10.25 29.56 C9.82 28.78 9.39 28 8.95 27.19 C8 25 8 25 8 22 C7.34 21.67 6.68 21.34 6 21 C5.05 18.84 4.19 16.65 3.38 14.44 C2.93 13.24 2.48 12.04 2.02 10.81 C1.69 9.88 1.35 8.95 1 8 C-0.41 9.41 -0.85 10.95 -1.56 12.81 C-1.83 13.5 -2.1 14.19 -2.38 14.89 C-3.19 17.27 -3.19 17.27 -3 21 C0.3 21.66 3.6 22.32 7 23 C7 23.99 7 24.98 7 26 C2.05 26.33 -2.9 26.66 -8 27 C-8.33 28.98 -8.66 30.96 -9 33 C-9.33 33.66 -9.66 34.32 -10 35 C-11.65 35 -13.3 35 -15 35 C-14.73 34.34 -14.46 33.68 -14.19 33 C-13.04 30.1 -11.94 27.18 -10.84 24.26 C-9.41 20.42 -7.96 16.58 -6.5 12.75 C-6.06 11.57 -6.06 11.57 -5.61 10.36 C-4.13 6.5 -2.77 3.14 0 0 Z " fill="#F4F5F6" transform="translate(722,483)"/>
<path d="M0 0 C1.65 0 3.3 0 5 0 C6.42 2.85 6.22 5.36 6.32 8.54 C6.36 9.84 6.4 11.14 6.44 12.48 C6.48 13.86 6.52 15.24 6.56 16.62 C6.61 18.01 6.65 19.4 6.69 20.79 C6.8 24.19 6.9 27.6 7 31 C7.99 31.33 8.98 31.66 10 32 C10.33 21.44 10.66 10.88 11 0 C12.65 0.33 14.3 0.66 16 1 C16.03 4.46 16.05 7.92 16.06 11.38 C16.07 12.34 16.08 13.31 16.09 14.3 C16.14 31.3 16.14 31.3 13.19 35.69 C11 37 11 37 8.94 37 C6.37 35.68 5.48 34.49 4 32 C3.51 28.72 3.51 28.72 3.34 24.86 C3.3 24.18 3.27 23.5 3.23 22.8 C3.12 20.64 3.03 18.48 2.94 16.31 C2.84 14.14 2.74 11.96 2.63 9.79 C2.53 7.83 2.45 5.86 2.36 3.9 C2.24 2.94 2.12 1.98 2 1 C1.34 0.67 0.68 0.34 0 0 Z " fill="#0D0E10" transform="translate(854,487)"/>
<path d="M0 0 C3.77 -0.09 7.54 -0.14 11.31 -0.19 C12.38 -0.21 13.46 -0.24 14.56 -0.26 C15.59 -0.27 16.62 -0.28 17.68 -0.29 C19.1 -0.32 19.1 -0.32 20.55 -0.34 C23.4 0.06 24.25 0.78 26 3 C25.67 3.33 25.34 3.66 25 4 C21.7 4 18.4 4 15 4 C15 14.56 15 25.12 15 36 C13.68 36 12.36 36 11 36 C9.09 34.09 9.76 30.66 9.68 28.12 C9.66 27.43 9.64 26.75 9.62 26.04 C9.56 23.84 9.5 21.64 9.44 19.44 C9.39 17.95 9.35 16.46 9.31 14.97 C9.2 11.31 9.1 7.66 9 4 C6.36 4 3.72 4 1 4 C0.67 2.68 0.34 1.36 0 0 Z " fill="#F8F8F9" transform="translate(850,483)"/>
<path d="M0 0 C1.69 2.56 1.69 2.56 3 6 C1.49 11.3 -1.02 15.2 -5 19 C-10.65 20.65 -10.65 20.65 -13.94 19.06 C-16.13 14.81 -15.23 10.21 -14.38 5.69 C-11.36 -0.21 -6.07 -0.36 0 0 Z " fill="#FAFBFC" transform="translate(855,298)"/>
<path d="M0 0 C0.99 0.33 1.98 0.66 3 1 C4.49 4.52 4.11 8.41 4.1 12.17 C4.1 12.85 4.09 13.54 4.09 14.24 C4.09 16.41 4.08 18.58 4.06 20.75 C4.06 22.23 4.05 23.7 4.05 25.18 C4.04 28.78 4.02 32.39 4 36 C2.35 35.67 0.7 35.34 -1 35 C-0.99 34.04 -0.98 33.09 -0.96 32.11 C-0.91 24.33 -1.1 16.73 -2 9 C-2.55 9.79 -3.11 10.59 -3.68 11.41 C-4.4 12.43 -5.13 13.45 -5.88 14.5 C-6.95 16.03 -6.95 16.03 -8.05 17.59 C-8.7 18.39 -9.34 19.18 -10 20 C-10.66 20 -11.32 20 -12 20 C-12.75 18.31 -12.75 18.31 -13 16 C-11.73 14.28 -10.38 12.63 -9 11 C-8.22 10.04 -7.44 9.09 -6.64 8.11 C-5.85 7.14 -5.06 6.18 -4.25 5.19 C-3.05 3.72 -3.05 3.72 -1.83 2.23 C-1.22 1.49 -0.62 0.76 0 0 Z " fill="#F4F5F6" transform="translate(527,483)"/>
<path d="M0 0 C0.66 0 1.32 0 2 0 C4.01 4.17 4.24 7.58 4.19 12.19 C4.18 13.42 4.17 14.65 4.17 15.92 C4 19 4 19 3 21 C2.76 24.18 2.81 27.37 2.81 30.56 C2.8 31.43 2.79 32.3 2.78 33.2 C2.76 38.36 3.24 43 4.56 48 C5.23 51.05 5.13 53.89 5 57 C5.66 57 6.32 57 7 57 C7.33 56.01 7.66 55.02 8 54 C8.99 54 9.98 54 11 54 C10.6 56.32 10.09 57.86 8.75 59.81 C7 61 7 61 4.44 60.88 C2 60 2 60 0 57 C-0.25 54.49 -0.4 52.08 -0.45 49.57 C-0.47 48.83 -0.49 48.09 -0.52 47.33 C-0.58 44.93 -0.64 42.53 -0.69 40.12 C-0.71 39.31 -0.73 38.5 -0.75 37.67 C-1.06 25.07 -0.96 12.57 0 0 Z " fill="#111113" transform="translate(733,578)"/>
<path d="M0 0 C2.1 -0.11 4.21 -0.19 6.31 -0.25 C8.07 -0.32 8.07 -0.32 9.86 -0.39 C13 0 13 0 14.89 1.79 C16.52 5.04 16.45 7.43 16 11 C13.78 13.25 12.42 13.94 9.27 14.36 C8.32 14.35 7.36 14.33 6.38 14.31 C5.41 14.31 4.45 14.3 3.46 14.3 C1 14 1 14 -1 12 C-1.23 9.69 -1.23 9.69 -1.19 7 C-1.18 6.11 -1.17 5.23 -1.17 4.31 C-1 2 -1 2 0 0 Z " fill="#0D0E10" transform="translate(648,487)"/>
<path d="M0 0 C0.99 0 1.98 0 3 0 C3.66 1.98 4.32 3.96 5 6 C4.34 6 3.68 6 3 6 C2.67 6.66 2.34 7.32 2 8 C1.69 8.57 1.38 9.14 1.06 9.73 C-1.1 13.84 -2.53 17.32 -3 22 C0.63 22 4.26 22 8 22 C8 23.32 8 24.64 8 26 C4.37 26 0.74 26 -3 26 C-3 25.01 -3 24.02 -3 23 C-3.99 23 -4.98 23 -6 23 C-6.08 23.66 -6.16 24.32 -6.25 25 C-7.25 28.99 -9.07 32.39 -11 36 C-12.32 35.34 -13.64 34.68 -15 34 C-14.72 33.46 -14.44 32.93 -14.14 32.38 C-12.82 29.63 -11.76 26.85 -10.69 24 C-8.96 19.48 -7.21 14.98 -5.38 10.5 C-4.99 9.56 -4.61 8.62 -4.21 7.66 C-2.97 4.93 -1.74 2.44 0 0 Z " fill="#FAFBFC" transform="translate(585,483)"/>
<path d="M0 0 C1.53 0.09 3.05 0.25 4.56 0.44 C5.8 0.59 5.8 0.59 7.07 0.75 C7.7 0.83 8.34 0.91 9 1 C7 3 5 5 3 7 C2.89 10.03 2.84 13.04 2.83 16.07 C2.83 16.99 2.83 17.91 2.82 18.85 C2.82 20.8 2.81 22.74 2.81 24.69 C2.81 27.66 2.79 30.62 2.78 33.59 C2.77 35.48 2.77 37.37 2.77 39.26 C2.76 40.15 2.76 41.03 2.75 41.94 C2.77 46.7 3.16 50.53 5 55 C3.34 55.38 1.68 55.71 0 56 C-1.68 54.32 -1.13 52.25 -1.13 49.95 C-1.13 48.87 -1.14 47.79 -1.14 46.68 C-1.14 45.51 -1.13 44.33 -1.13 43.12 C-1.13 41.93 -1.13 40.74 -1.14 39.5 C-1.14 36.97 -1.13 34.44 -1.13 31.91 C-1.13 28.02 -1.13 24.13 -1.14 20.23 C-1.14 17.78 -1.13 15.33 -1.13 12.88 C-1.13 11.7 -1.14 10.53 -1.14 9.32 C-1.14 8.24 -1.13 7.17 -1.13 6.05 C-1.13 5.1 -1.13 4.15 -1.13 3.16 C-1 1 -1 1 0 0 Z " fill="#0F0F11" transform="translate(374,583)"/>
<path d="M0 0 C1 2 1 2 1.38 5.38 C2 8.99 2.69 10.29 5 13 C5 13.66 5 14.32 5 15 C6.32 15.66 7.64 16.32 9 17 C9 20 9 20 7.82 21.67 C5.41 23.43 3.89 23.34 0.94 23.25 C0.06 23.23 -0.82 23.22 -1.72 23.2 C-4 23 -4 23 -6 22 C-6.48 6.99 -6.48 6.99 -1.88 1.44 C-1.26 0.96 -0.64 0.49 0 0 Z " fill="#111113" transform="translate(1142,616)"/>
<path d="M0 0 C0.66 0 1.32 0 2 0 C2.67 1.29 3.34 2.58 4 3.88 C4.37 4.59 4.74 5.31 5.12 6.05 C6 8 6 8 6 10 C6.54 10.23 7.07 10.45 7.62 10.69 C11.44 12.8 15.22 15.13 16.94 19.25 C16.96 19.83 16.98 20.4 17 21 C15.36 22.64 13.51 22.29 11.25 22.38 C7.15 22.36 6.29 22.23 2.94 19.56 C2.3 18.72 1.66 17.87 1 17 C0.67 16.67 0.34 16.34 0 16 C-0.07 13.3 -0.09 10.63 -0.06 7.94 C-0.06 7.18 -0.05 6.42 -0.05 5.64 C-0.04 3.76 -0.02 1.88 0 0 Z " fill="#0D0E10" transform="translate(893,617)"/>
<path d="M0 0 C2 3 2 3 2 5.38 C0.6 9.06 -1.57 11.19 -5 13 C-8 13.67 -10.93 13.92 -14 14 C-15.09 12.25 -15.09 12.25 -16 10 C-14.98 5.59 -12.76 2.55 -9.12 -0.06 C-5.55 -1.13 -3.54 -1.13 0 0 Z " fill="#0D0E10" transform="translate(1106,607)"/>
<path d="M0 0 C0.33 0 0.66 0 1 0 C1.16 0.66 1.32 1.33 1.48 2.01 C2.97 7.64 4.25 11.3 9 15 C11.17 16.3 11.17 16.3 13 17 C13 17.66 13 18.32 13 19 C13.66 19 14.32 19 15 19 C14.38 20.94 14.38 20.94 13 23 C10.06 24.09 8.09 24.43 5.12 23.27 C1.9 21.52 0.04 20.07 -2 17 C-2.19 14.43 -2.28 12 -2.25 9.44 C-2.26 8.75 -2.27 8.07 -2.27 7.36 C-2.25 2.25 -2.25 2.25 0 0 Z " fill="#1E1D1E" transform="translate(684,616)"/>
<path d="M0 0 C2 3 2 3 2 5.94 C1 9 1 9 -1.5 11.31 C-5.72 13.35 -9.37 13.79 -14 14 C-14.81 12 -14.81 12 -15 9 C-13.28 4.96 -11.24 1.78 -7.5 -0.56 C-4.61 -1.07 -2.77 -0.97 0 0 Z " fill="#0D0E10" transform="translate(449,607)"/>
<path d="M0 0 C0.33 0 0.66 0 1 0 C1.14 3.08 1.24 5.43 0.03 8.3 C-3.51 17.58 -2.05 29.64 -1.98 39.47 C-1.95 45.7 -2.19 51.82 -3 58 C-3.33 58 -3.66 58 -4 58 C-4.33 55.69 -4.66 53.38 -5 51 C-5.33 51 -5.66 51 -6 51 C-6.84 10.69 -6.84 10.69 -1 1 C-0.67 0.67 -0.34 0.34 0 0 Z " fill="#0D0E10" transform="translate(134,460)"/>
<path d="M0 0 C3.5 1.17 4.09 1.94 6 5 C6.71 6.89 7.35 8.81 7.94 10.75 C9.33 15.12 10.91 19.08 13.05 23.12 C15.12 27.22 17 31.37 17 36 C13.38 34.57 12.06 32.97 10.25 29.56 C9.82 28.78 9.39 28 8.95 27.19 C8 25 8 25 8 22 C7.34 21.67 6.68 21.34 6 21 C4.91 18.06 3.94 15.11 3.03 12.1 C1.78 8.23 1.78 8.23 -1.16 5.56 C-1.77 5.37 -2.38 5.19 -3 5 C-2.01 3.35 -1.02 1.7 0 0 Z " fill="#F9FAFB" transform="translate(722,483)"/>
<path d="M0 0 C2.19 -0.44 2.19 -0.44 5 0 C9.5 4.7 10.6 8.45 11.05 14.86 C11 17 11 17 10 19 C6.05 17.87 3.56 16.1 1.01 12.86 C-0.83 9.48 -1.11 5.8 -1 2 C-0.67 1.34 -0.34 0.68 0 0 Z " fill="#0D0E10" transform="translate(905,608)"/>
<path d="M0 0 C3.11 1.26 4.37 2.78 5.91 5.74 C7.34 10.39 6.91 15.25 6.62 20.06 C2.57 18.22 -0.49 16.48 -3.38 13.06 C-4.68 9.14 -4.57 6.2 -4.38 2.06 C-2.38 0.06 -2.38 0.06 0 0 Z " fill="#0D0E10" transform="translate(697.375,606.9375)"/>
<path d="M0 0 C1.32 0 2.64 0 4 0 C7.95 6.47 8.4 10.59 7 18 C3.99 17.11 2.3 16.35 0.25 13.94 C-1.39 10.09 -2.17 6.2 -2 2 C-1.34 1.34 -0.68 0.68 0 0 Z " fill="#131315" transform="translate(1152,608)"/>
<path d="M0 0 C3.8 5.7 4.29 12.28 4 19 C4.66 19 5.32 19 6 19 C6.33 18.01 6.66 17.02 7 16 C7.99 16 8.98 16 10 16 C9.6 18.32 9.09 19.86 7.75 21.81 C6 23 6 23 3.44 22.88 C1 22 1 22 -1 19 C-1.24 17.02 -1.24 17.02 -1.23 14.8 C-1.23 14.01 -1.23 13.21 -1.22 12.39 C-1.21 11.14 -1.21 11.14 -1.19 9.88 C-1.19 9.04 -1.19 8.2 -1.19 7.34 C-1.14 1.14 -1.14 1.14 0 0 Z " fill="#0D0E10" transform="translate(734,616)"/>
<path d="M0 0 C0.33 0 0.66 0 1 0 C1 7.92 1 15.84 1 24 C-0.32 24 -1.64 24 -3 24 C-4 23 -4 23 -4.11 20.96 C-4.11 20.08 -4.1 19.21 -4.1 18.31 C-4.09 17.36 -4.09 16.42 -4.09 15.45 C-4.08 14.45 -4.07 13.46 -4.06 12.44 C-4.06 11.44 -4.05 10.44 -4.05 9.42 C-4.04 6.94 -4.02 4.47 -4 2 C-3.34 1.67 -2.68 1.34 -2 1 C-1.67 1.99 -1.34 2.98 -1 4 C-0.67 2.68 -0.34 1.36 0 0 Z " fill="#DDDADB" transform="translate(497,494)"/>
<path d="M0 0 C3.59 3.39 5.4 6.28 7 11 C6.67 12.32 6.34 13.64 6 15 C3.03 15 0.06 15 -3 15 C-5 11 -5 11 -4.1 8.2 C-3.61 7.23 -3.13 6.25 -2.62 5.25 C-2.14 4.27 -1.66 3.28 -1.16 2.27 C-0.78 1.52 -0.4 0.77 0 0 Z " fill="#0D0E10" transform="translate(436,491)"/>
<path d="M0 0 C0.33 0 0.66 0 1 0 C1 15.18 1 30.36 1 46 C0.67 46 0.34 46 0 46 C-0.06 45.36 -0.12 44.72 -0.18 44.07 C-0.31 42.83 -0.31 42.83 -0.44 41.56 C-0.56 40.33 -0.56 40.33 -0.68 39.07 C-0.79 37.01 -0.79 37.01 -2 36 C-2.09 33.85 -2.11 31.71 -2.1 29.56 C-2.09 28.25 -2.09 26.95 -2.09 25.6 C-2.08 24.21 -2.07 22.83 -2.06 21.44 C-2.06 20.04 -2.05 18.65 -2.05 17.26 C-2.04 13.84 -2.02 10.42 -2 7 C-1.67 7 -1.34 7 -1 7 C-0.67 4.69 -0.34 2.38 0 0 Z " fill="#0D0E10" transform="translate(518,182)"/>
<path d="M0 0 C0.99 0 1.98 0 3 0 C3.1 0.99 3.21 1.98 3.31 3 C3.91 7.28 5.39 11 7 15 C3.37 15 -0.26 15 -4 15 C-5.33 11.02 -4.23 9.6 -2.56 5.81 C-2.09 4.73 -1.62 3.64 -1.13 2.52 C-0.76 1.69 -0.38 0.86 0 0 Z " fill="#19191A" transform="translate(586,490)"/>
<path d="M0 0 C0.99 0.33 1.98 0.66 3 1 C4.39 3.94 4.39 3.94 5.69 7.56 C6.34 9.36 6.34 9.36 7.01 11.19 C7.34 12.12 7.66 13.05 8 14 C7 15 7 15 4.93 15.1 C4.11 15.09 3.29 15.07 2.44 15.06 C1.61 15.05 0.78 15.04 -0.07 15.04 C-0.7 15.02 -1.34 15.01 -2 15 C-3.62 10.42 -2.3 7.24 -0.69 2.89 C0.06 1.18 0.06 1.18 0 0 Z " fill="#1A191A" transform="translate(721,490)"/>
<path d="M0 0 C0.99 0 1.98 0 3 0 C4.44 4.32 3.97 8.45 3.84 12.97 C3.75 16.18 3.75 16.18 6 19 C8.05 20.19 8.05 20.19 10 21 C3.68 21.49 3.68 21.49 0.79 19.43 C-1.63 16.14 -1.44 13.98 -1.31 9.94 C-1.29 8.71 -1.26 7.48 -1.24 6.21 C-1 3 -1 3 0 0 Z " fill="#0D0E10" transform="translate(536,618)"/>
<path d="M0 0 C0.66 0 1.32 0 2 0 C3.48 2.95 3.05 5.59 3 8.88 C2.91 14.85 3.29 20.58 4.17 26.51 C4 29 4 29 2.2 31.33 C0 33 0 33 -3 33 C-3 32.34 -3 31.68 -3 31 C-2.01 30.34 -1.02 29.68 0 29 C0.42 25.99 0.42 25.99 0.29 22.46 C0.28 21.16 0.27 19.86 0.26 18.52 C0.24 17.14 0.21 15.76 0.19 14.38 C0.17 12.99 0.16 11.6 0.15 10.21 C0.11 6.81 0.06 3.4 0 0 Z " fill="#0D0E10" transform="translate(531,490)"/>
<path d="M0 0 C2.1 3.15 2.28 4.12 2.41 7.75 C2.45 8.67 2.49 9.59 2.53 10.53 C2.56 11.49 2.59 12.45 2.62 13.44 C2.66 14.39 2.7 15.35 2.74 16.33 C2.89 20.22 3 24.1 3 28 C2.34 28 1.68 28 1 28 C0.67 28.66 0.34 29.32 0 30 C-1.07 26.78 -1.13 24.44 -1.13 21.05 C-1.13 19.9 -1.14 18.74 -1.14 17.54 C-1.13 16.33 -1.13 15.12 -1.12 13.88 C-1.13 12.66 -1.13 11.44 -1.14 10.18 C-1.14 9.03 -1.13 7.87 -1.13 6.68 C-1.13 5.61 -1.13 4.55 -1.13 3.45 C-1 1 -1 1 0 0 Z " fill="#0E0E10" transform="translate(1137,577)"/>
<path d="M0 0 C0.66 0 1.32 0 2 0 C3.4 2.79 3.13 5.13 3.12 8.25 C3.13 9.37 3.13 10.49 3.13 11.64 C3.01 14.85 2.6 17.85 2 21 C1.67 20.01 1.34 19.02 1 18 C0.34 18 -0.32 18 -1 18 C-1.53 16.09 -2.05 14.17 -2.56 12.25 C-2.85 11.18 -3.14 10.12 -3.44 9.02 C-3.97 6.16 -3.98 4.68 -3 2 C-2.67 2.66 -2.34 3.32 -2 4 C-1.34 2.68 -0.68 1.36 0 0 Z " fill="#0F0F11" transform="translate(1048,601)"/>
<path d="M0 0 C1.49 0.99 1.49 0.99 3 2 C3.28 4.63 3.38 7 3.31 9.62 C3.3 10.35 3.3 11.07 3.29 11.81 C3.17 16.8 2.59 21.24 1 26 C-1.19 22.72 -1.25 21.74 -1.23 17.93 C-1.23 16.95 -1.23 15.97 -1.22 14.96 C-1.21 13.95 -1.2 12.93 -1.19 11.88 C-1.19 10.85 -1.19 9.82 -1.19 8.76 C-1.14 1.14 -1.14 1.14 0 0 Z " fill="#121214" transform="translate(978,347)"/>
<path d="M0 0 C2.97 0.5 2.97 0.5 6 1 C6.03 2.96 6.05 4.92 6.06 6.88 C6.07 7.97 6.09 9.06 6.1 10.18 C6 13 6 13 5 15 C3.35 14.67 1.7 14.34 0 14 C0 9.38 0 4.76 0 0 Z " fill="#0E0F11" transform="translate(647,505)"/>
<path d="M0 0 C0.33 0 0.66 0 1 0 C1 8.58 1 17.16 1 26 C1.99 26.33 2.98 26.66 4 27 C5.19 29.06 5.19 29.06 6 31 C4.35 30.67 2.7 30.34 1 30 C0.67 29.01 0.34 28.02 0 27 C-0.66 27 -1.32 27 -2 27 C-2.36 4.72 -2.36 4.72 0 0 Z " fill="#0D0E10" transform="translate(778,492)"/>
<path d="M0 0 C3.48 0.14 6.96 0.29 10.44 0.44 C11.93 0.5 11.93 0.5 13.45 0.56 C14.86 0.62 14.86 0.62 16.31 0.68 C17.18 0.72 18.06 0.76 18.96 0.79 C21 1 21 1 22 2 C22.16 3.49 22.25 4.98 22.32 6.47 C22.36 7.37 22.4 8.27 22.44 9.2 C22.48 10.14 22.52 11.09 22.56 12.06 C22.61 13.01 22.65 13.96 22.69 14.94 C22.8 17.29 22.9 19.65 23 22 C20.09 19.09 20.29 15.79 19.88 11.88 C19.79 11.12 19.7 10.37 19.61 9.59 C19.4 7.73 19.2 5.86 19 4 C17.57 4.05 17.57 4.05 16.11 4.11 C14.86 4.13 13.6 4.16 12.31 4.19 C10.45 4.24 10.45 4.24 8.55 4.29 C4.81 3.98 2.96 3.25 0 1 C0 0.67 0 0.34 0 0 Z " fill="#0D0E10" transform="translate(807,379)"/>
<path d="M0 0 C1.65 0.33 3.3 0.66 5 1 C5 5.29 5 9.58 5 14 C0 13 0 13 -1 12 C-1.1 10.36 -1.13 8.71 -1.12 7.06 C-1.13 6.17 -1.13 5.27 -1.13 4.35 C-1 2 -1 2 0 0 Z " fill="#0D0E10" transform="translate(648,487)"/>
<path d="M0 0 C0.99 0.33 1.98 0.66 3 1 C3 10.57 3 20.14 3 30 C2.67 30 2.34 30 2 30 C2 27.36 2 24.72 2 22 C1.34 22 0.68 22 0 22 C0 14.74 0 7.48 0 0 Z " fill="#0F0F11" transform="translate(757,602)"/>
<path d="M0 0 C0.66 0 1.32 0 2 0 C3.44 1.78 4.81 3.63 6.12 5.5 C7.21 7.03 7.21 7.03 8.32 8.59 C8.87 9.39 9.43 10.18 10 11 C7.67 12.21 5.5 13.17 3 14 C2.67 14.66 2.34 15.32 2 16 C1.34 10.72 0.68 5.44 0 0 Z " fill="#0F0F11" transform="translate(497,491)"/>
<path d="M0 0 C0.99 0.66 1.98 1.32 3 2 C2.84 2.83 2.67 3.66 2.5 4.51 C1.95 8.32 1.89 12.03 1.94 15.88 C1.94 16.91 1.94 16.91 1.95 17.96 C1.96 19.64 1.98 21.32 2 23 C1.01 23 0.02 23 -1 23 C-2.76 15.18 -2.69 7.57 0 0 Z " fill="#0D0E10" transform="translate(482,385)"/>
<path d="M0 0 C2.19 -0.44 2.19 -0.44 5 0 C7.99 3.01 10 5.7 10 10 C8.35 9.67 6.7 9.34 5 9 C5 8.01 5 7.02 5 6 C4.01 6 3.02 6 2 6 C1.67 6.99 1.34 7.98 1 9 C-1 6 -1 6 -0.62 2.81 C-0.42 1.88 -0.21 0.96 0 0 Z " fill="#161617" transform="translate(905,608)"/>
<path d="M0 0 C-1 2.44 -1 2.44 -3 5 C-5.73 5.76 -8.14 5.86 -11 6 C-11.99 4.68 -12.98 3.36 -14 2 C-13.67 1.34 -13.34 0.68 -13 0 C-8.37 -1 -4.62 -1.01 0 0 Z " fill="#111113" transform="translate(448,629)"/>
<path d="M0 0 C0.66 0 1.32 0 2 0 C4.06 2.96 5.14 5.54 6 9 C6.66 9.33 7.32 9.66 8 10 C7.67 10.99 7.34 11.98 7 13 C5.02 13.33 3.04 13.66 1 14 C-0.38 11.24 -0.1 8.95 -0.06 5.88 C-0.05 4.78 -0.04 3.68 -0.04 2.55 C-0.02 1.71 -0.01 0.87 0 0 Z " fill="#0D0E10" transform="translate(713,615)"/>
<path d="M0 0 C2.23 4.16 3.13 8.29 4.12 12.88 C4.31 13.67 4.49 14.46 4.68 15.27 C5.63 19.59 6.22 23.54 6 28 C1.52 22.74 1.89 17.59 2 11 C1.34 11 0.68 11 0 11 C-1.63 7.75 -1.11 4.61 -1 1 C-0.67 0.67 -0.34 0.34 0 0 Z " fill="#131415" transform="translate(1033,600)"/>
<path d="M0 0 C-0.07 0.74 -0.14 1.48 -0.22 2.24 C-1.23 13.31 -1.08 23.93 0 35 C-4.65 29.91 -3.69 23.48 -3.88 16.94 C-3.93 15.65 -3.99 14.35 -4.05 13.02 C-4.1 11.79 -4.14 10.55 -4.18 9.28 C-4.22 8.15 -4.26 7.01 -4.3 5.85 C-4 3 -4 3 -2.55 1.11 C-1 0 -1 0 0 0 Z " fill="#0E0F11" transform="translate(954,374)"/>
<path d="M0 0 C0.71 0.01 1.41 0.03 2.14 0.04 C2.86 0.07 3.58 0.11 4.32 0.14 C5.44 0.17 5.44 0.17 6.57 0.2 C8.38 0.24 10.2 0.31 12.01 0.39 C12.67 1.71 13.33 3.03 14.01 4.39 C6.42 4.39 -1.17 4.39 -8.99 4.39 C-3.36 -0.11 -3.36 -0.11 0 0 Z " fill="#0D0E10" transform="translate(506.98828125,340.609375)"/>
<path d="M0 0 C0.33 0 0.66 0 1 0 C1 8.25 1 16.5 1 25 C-2.63 25 -6.26 25 -10 25 C-10 24.01 -10 23.02 -10 22 C-7.69 22 -5.38 22 -3 22 C-0.75 17.43 -0.58 13.18 -0.38 8.19 C-0.34 7.4 -0.3 6.61 -0.26 5.8 C-0.16 3.87 -0.08 1.93 0 0 Z " fill="#0F0F11" transform="translate(858,575)"/>
<path d="M0 0 C0.33 0 0.66 0 1 0 C1 4.95 1 9.9 1 15 C-2.44 13.69 -2.44 13.69 -6 12 C-6.33 11.01 -6.66 10.02 -7 9 C-6.03 8.26 -5.06 7.51 -4.06 6.75 C-1.98 5.03 -1.1 4.26 -0.12 1.69 C-0.08 1.13 -0.04 0.57 0 0 Z " fill="#0F0F11" transform="translate(893,394)"/>
<path d="M0 0 C1.31 -0.01 2.62 -0.02 3.97 -0.02 C7.5 0.38 7.5 0.38 11.5 3.38 C3.91 3.38 -3.68 3.38 -11.5 3.38 C-6.95 -0.03 -5.51 -0.03 0 0 Z " fill="#0F1012" transform="translate(359.5,34.625)"/>
<path d="M0 0 C1.19 3.47 0.8 5.73 -0.14 9.25 C-0.54 10.75 -0.54 10.75 -0.95 12.28 C-1.23 13.32 -1.52 14.37 -1.81 15.44 C-2.09 16.47 -2.36 17.51 -2.64 18.58 C-3.87 23.18 -5.16 27.6 -7 32 C-7.33 32 -7.66 32 -8 32 C-8.18 27.38 -7.89 24.2 -6 20 C-5.54 18.42 -5.08 16.83 -4.64 15.25 C-3.18 10.14 -1.57 5.07 0 0 Z " fill="#0E0E10" transform="translate(1026,588)"/>
<path d="M0 0 C1.38 1.29 2.71 2.63 4 4 C4 4.66 4 5.32 4 6 C5.32 6.66 6.64 7.32 8 8 C5.64 10.36 4.22 10.49 1 11 C-1.62 7.94 -2 7.27 -2 3 C-1.34 3 -0.68 3 0 3 C0 2.01 0 1.02 0 0 Z " fill="#212021" transform="translate(1143,625)"/>
<path d="M0 0 C1.94 0.75 1.94 0.75 4 2 C4.81 4.06 4.81 4.06 5 6 C3.35 7.65 1.45 7.25 -0.81 7.31 C-5.62 7.29 -5.62 7.29 -8.62 5 C-9.08 4.34 -9.53 3.68 -10 3 C-9.67 2.34 -9.34 1.68 -9 1 C-8.34 1.66 -7.68 2.32 -7 3 C-3.92 3.17 -3.92 3.17 -1 3 C-0.67 2.01 -0.34 1.02 0 0 Z " fill="#0D0E10" transform="translate(905,632)"/>
<path d="M0 0 C0.33 0.66 0.66 1.32 1 2 C1.99 2.33 2.98 2.66 4 3 C3.43 5.87 3.14 6.86 1 9 C1 9.66 1 10.32 1 11 C2.65 11.33 4.3 11.66 6 12 C6 12.66 6 13.32 6 14 C3.12 14.12 3.12 14.12 0 14 C-2 12 -2 12 -2.01 9.69 C-1.9 8.8 -1.8 7.91 -1.69 7 C-1.59 6.11 -1.49 5.23 -1.39 4.31 C-1 2 -1 2 0 0 Z " fill="#0D0E10" transform="translate(610,625)"/>
<path d="M0 0 C1.32 0.99 2.64 1.98 4 3 C3.25 7.75 3.25 7.75 1 10 C2.98 10.99 4.96 11.98 7 13 C6.67 13.66 6.34 14.32 6 15 C3.69 14.67 1.38 14.34 -1 14 C-1.18 4.59 -1.18 4.59 0 0 Z " fill="#0D0E10" transform="translate(656,624)"/>
<path d="M0 0 C0.33 0 0.66 0 1 0 C0.45 10.34 -0.14 20.68 -1 31 C-1.33 31 -1.66 31 -2 31 C-2.05 26.91 -2.09 22.81 -2.11 18.72 C-2.12 17.33 -2.13 15.93 -2.15 14.54 C-2.18 12.54 -2.19 10.54 -2.2 8.54 C-2.21 7.33 -2.22 6.13 -2.23 4.89 C-2 2 -2 2 0 0 Z " fill="#0E0F10" transform="translate(99,471)"/>
<path d="M0 0 C2.1 -0.05 4.21 -0.09 6.31 -0.12 C8.07 -0.16 8.07 -0.16 9.86 -0.2 C13 0 13 0 16 2 C13.41 4.59 12.17 4.33 8.56 4.38 C7.11 4.42 7.11 4.42 5.63 4.46 C3 4 3 4 1.15 1.98 C0.77 1.32 0.39 0.67 0 0 Z " fill="#131315" transform="translate(367,647)"/>
<path d="M0 0 C0.2 4.33 -0.4 7.03 -2 11 C-2.58 13.26 -3.12 15.53 -3.62 17.81 C-3.89 18.97 -4.15 20.14 -4.41 21.33 C-4.61 22.21 -4.8 23.09 -5 24 C-5.33 24 -5.66 24 -6 24 C-6.34 18.52 -5.67 13.44 -4.62 8.06 C-4.5 7.39 -4.37 6.71 -4.24 6.02 C-3.9 4.33 -3.46 2.66 -3 1 C-1 0 -1 0 0 0 Z " fill="#141416" transform="translate(135,460)"/>
<path d="M0 0 C2.96 4.44 3.11 7.45 3.06 12.69 C3.05 13.87 3.04 15.05 3.04 16.26 C3.02 17.17 3.01 18.07 3 19 C-1.34 13.45 -1.48 7.89 -1 1 C-0.67 0.67 -0.34 0.34 0 0 Z " fill="#0F1012" transform="translate(652,168)"/>
<path d="M0 0 C-3.39 3.39 -7.34 3.08 -11.94 3.19 C-15.98 3.16 -19.24 2.58 -23 1 C-23 0.67 -23 0.34 -23 0 C-15.46 -0.13 -15.46 -0.13 -12.69 0.62 C-11.85 0.81 -11.85 0.81 -11 1 C-6.82 -1.79 -4.85 -0.8 0 0 Z " fill="#0E0F10" transform="translate(630,412)"/>
<path d="M0 0 C0.66 0 1.32 0 2 0 C3.65 3.63 5.3 7.26 7 11 C6.01 11.5 6.01 11.5 5 12 C4.01 11.67 3.02 11.34 2 11 C1.67 11.66 1.34 12.32 1 13 C-0 9.99 -0.1 7.96 -0.06 4.81 C-0.05 3.91 -0.04 3.01 -0.04 2.08 C-0.02 1.39 -0.01 0.71 0 0 Z " fill="#0E0F11" transform="translate(893,617)"/>
<path d="M0 0 C1.98 0.5 1.98 0.5 4 1 C3.42 3.39 2.78 5.67 2 8 C4.48 8.99 4.48 8.99 7 10 C6.67 10.66 6.34 11.32 6 12 C3.62 12.12 3.62 12.12 1 12 C-1 10 -1 10 -1.19 6.56 C-1 3 -1 3 0 0 Z " fill="#0D0E10" transform="translate(966,627)"/>
<path d="M0 0 C0.33 0 0.66 0 1 0 C0.38 6.2 -0.92 11.99 -2.56 18 C-2.8 18.87 -3.03 19.74 -3.27 20.64 C-3.84 22.76 -4.42 24.88 -5 27 C-5.33 27 -5.66 27 -6 27 C-6.18 21.68 -5.8 18.06 -4 13 C-3.29 10.71 -2.58 8.42 -1.88 6.12 C-1.35 4.4 -1.35 4.4 -0.8 2.63 C-0.54 1.76 -0.27 0.9 0 0 Z " fill="#0E0F11" transform="translate(1057,584)"/>
<path d="M0 0 C0.33 0 0.66 0 1 0 C1.08 2.25 1.14 4.5 1.19 6.75 C1.22 8 1.26 9.26 1.29 10.55 C0.99 14.14 0.46 15.45 -2 18 C-3.04 12.57 -3.27 7.43 -2 2 C-1.34 1.34 -0.68 0.68 0 0 Z " fill="#0E0F11" transform="translate(654,222)"/>
<path d="M0 0 C0.58 0.21 1.16 0.41 1.75 0.62 C-5.36 3.95 -12.32 6.03 -20.25 5.62 C-19.92 4.63 -19.59 3.64 -19.25 2.62 C-18.36 2.58 -17.47 2.53 -16.55 2.48 C-15.38 2.4 -14.21 2.33 -13 2.25 C-11.26 2.15 -11.26 2.15 -9.48 2.04 C-6.02 1.6 -3.34 -0.56 0 0 Z " fill="#0F1011" transform="translate(225.25,575.375)"/>
<path d="M0 0 C1.32 0.33 2.64 0.66 4 1 C4 1.66 4 2.32 4 3 C4.66 3 5.32 3 6 3 C5.38 4.94 5.38 4.94 4 7 C0.11 8.33 -1.57 8.18 -5.38 6.56 C-6.24 6.05 -7.11 5.53 -8 5 C-7.34 4.34 -6.68 3.68 -6 3 C-5.34 3.66 -4.68 4.32 -4 5 C-1.95 4.9 -1.95 4.9 0 4 C0.66 3.01 1.32 2.02 2 1 C1.34 0.67 0.68 0.34 0 0 Z " fill="#0D0E10" transform="translate(693,632)"/>
<path d="M0 0 C0.99 0 1.98 0 3 0 C3 1.65 3 3.3 3 5 C3.66 5.33 4.32 5.66 5 6 C4.2 6.27 3.39 6.54 2.56 6.81 C1.72 7.2 0.87 7.6 0 8 C-0.33 8.99 -0.66 9.98 -1 11 C-1.99 10.67 -2.98 10.34 -4 10 C-3.29 6.33 -1.72 3.3 0 0 Z " fill="#131416" transform="translate(477,629)"/>
<path d="M0 0 C1.32 -0.02 1.32 -0.02 2.66 -0.04 C4.94 0.19 4.94 0.19 6.94 2.19 C1.75 4.39 -1.66 4.29 -7.06 3.19 C-7.39 2.53 -7.72 1.87 -8.06 1.19 C-5.12 0.21 -3.07 0.02 0 0 Z " fill="#0E0F11" transform="translate(932.0625,511.8125)"/>
<path d="M0 0 C0.66 0 1.32 0 2 0 C3 3.01 3.1 5.04 3.06 8.19 C3.05 9.09 3.04 9.99 3.04 10.92 C3.02 11.61 3.01 12.29 3 13 C1 12 1 12 0 9 C-0.66 9 -1.32 9 -2 9 C-2.25 3.38 -2.25 3.38 0 0 Z " fill="#0F0F11" transform="translate(1031,609)"/>
<path d="M0 0 C0.99 0.33 1.98 0.66 3 1 C3 4.96 3 8.92 3 13 C2.01 13.33 1.02 13.66 0 14 C-2 11 -2 11 -1.76 8.3 C-1.55 7.31 -1.34 6.33 -1.12 5.31 C-0.92 4.32 -0.72 3.32 -0.51 2.3 C-0.34 1.54 -0.17 0.78 0 0 Z " fill="#0F0F11" transform="translate(721,490)"/>
<path d="M0 0 C0.66 0 1.32 0 2 0 C4.12 4.24 3.25 9.12 2 13.5 C1.5 14.74 1.5 14.74 1 16 C0.67 16 0.34 16 0 16 C0 10.72 0 5.44 0 0 Z " fill="#101012" transform="translate(531,490)"/>
<path d="M0 0 C5.94 0.33 11.88 0.66 18 1 C17.67 1.66 17.34 2.32 17 3 C14.45 3.52 14.45 3.52 11.25 3.81 C9.68 3.98 9.68 3.98 8.08 4.14 C4.54 3.98 2.81 3.1 0 1 C0 0.67 0 0.34 0 0 Z " fill="#121214" transform="translate(807,379)"/>
<path d="M0 0 C2.88 0.31 2.88 0.31 6 1 C8 4 8 4 7.62 6.69 C7.42 7.45 7.21 8.21 7 9 C4.04 6.19 1.56 3.82 0 0 Z " fill="#0F0F11" transform="translate(1100,606)"/>
<path d="M0 0 C1.46 -0.03 2.92 -0.05 4.38 -0.06 C5.19 -0.07 6 -0.09 6.84 -0.1 C9 0 9 0 11 1 C11 1.99 11 2.98 11 4 C7.04 4 3.08 4 -1 4 C-0.67 2.68 -0.34 1.36 0 0 Z " fill="#F9FAFB" transform="translate(718,505)"/>
<path d="M0 0 C3 1 3 1 4.25 2.62 C5.3 5.95 4.65 8.62 4 12 C1.96 10.31 1.08 9.36 0.49 6.74 C0.43 5.94 0.37 5.14 0.31 4.31 C0.25 3.5 0.18 2.7 0.11 1.86 C0.08 1.25 0.04 0.63 0 0 Z " fill="#0E0E10" transform="translate(911,348)"/>
<path d="M0 0 C0.66 1.32 1.32 2.64 2 4 C-1.63 4 -5.26 4 -9 4 C-8 1 -8 1 -5.62 -0.25 C-3 -1 -3 -1 0 0 Z " fill="#0E0E10" transform="translate(1109,635)"/>
<path d="M0 0 C0.99 0 1.98 0 3 0 C3 0.99 3 1.98 3 3 C6.96 3 10.92 3 15 3 C15 3.66 15 4.32 15 5 C11.88 5.97 9.48 5.99 6.25 5.56 C5.05 5.41 5.05 5.41 3.83 5.25 C3.22 5.17 2.62 5.09 2 5 C1.34 3.35 0.68 1.7 0 0 Z " fill="#0F0F11" transform="translate(579,506)"/>
<path d="M0 0 C1.45 0.03 1.45 0.03 2.94 0.06 C3.6 1.71 4.26 3.36 4.94 5.06 C2.63 5.06 0.32 5.06 -2.06 5.06 C-2.72 3.74 -3.38 2.42 -4.06 1.06 C-3.06 0.06 -3.06 0.06 0 0 Z " fill="#0F0F11" transform="translate(775.0625,641.9375)"/>
<path d="M0 0 C1.32 0 2.64 0 4 0 C3.67 3.63 3.34 7.26 3 11 C2.67 10.01 2.34 9.02 2 8 C1.34 8 0.68 8 0 8 C-0.38 5.67 -0.71 3.34 -1 1 C-0.67 0.67 -0.34 0.34 0 0 Z " fill="#101113" transform="translate(1047,611)"/>
<path d="M0 0 C1.65 0 3.3 0 5 0 C5.33 2.97 5.66 5.94 6 9 C5.67 8.34 5.34 7.68 5 7 C4.34 6.73 3.68 6.46 3 6.19 C1 5 1 5 0.25 2.38 C0.17 1.59 0.09 0.81 0 0 Z " fill="#0F0F11" transform="translate(799,501)"/>
<path d="M0 0 C0 0.99 0 1.98 0 3 C-3.68 4.18 -7.16 4.21 -11 4 C-11.66 3.34 -12.32 2.68 -13 2 C-4.57 -0.29 -4.57 -0.29 0 0 Z " fill="#0D0E10" transform="translate(501,411)"/>
<path d="M0 0 C1.49 0.99 1.49 0.99 3 2 C3.29 4.6 3.29 4.6 3.19 7.62 C3.16 8.63 3.13 9.63 3.11 10.66 C3.07 11.43 3.04 12.21 3 13 C2.67 11.68 2.34 10.36 2 9 C1.34 9 0.68 9 0 9 C-1.37 6.27 -1.13 4.02 -1 1 C-0.67 0.67 -0.34 0.34 0 0 Z " fill="#0E0E10" transform="translate(691,385)"/>
<path d="M0 0 C0.66 0 1.32 0 2 0 C2 0.99 2 1.98 2 3 C3.94 5.19 3.94 5.19 6 7 C4.02 7.33 2.04 7.66 0 8 C-1.12 6.25 -1.12 6.25 -2 4 C-1.12 1.75 -1.12 1.75 0 0 Z " fill="#0F0F11" transform="translate(433,498)"/>
<path d="M0 0 C0.33 0 0.66 0 1 0 C0.67 4.62 0.34 9.24 0 14 C-0.99 14.33 -1.98 14.66 -3 15 C-3.36 9.2 -2.26 5.36 0 0 Z " fill="#0D0E10" transform="translate(829,359)"/>
<path d="M0 0 C0.33 0 0.66 0 1 0 C2.87 5.49 3.24 10.22 3 16 C2.67 14.68 2.34 13.36 2 12 C1.34 12 0.68 12 0 12 C-0.2 10.56 -0.38 9.13 -0.56 7.69 C-0.67 6.89 -0.77 6.09 -0.88 5.26 C-1 3 -1 3 0 0 Z " fill="#0D0E10" transform="translate(520,237)"/>
<path d="M0 0 C1.88 1.59 2.9 2.48 3.36 4.94 C3.35 5.62 3.33 6.3 3.31 7 C3.31 7.68 3.3 8.36 3.3 9.06 C3 11 3 11 1 14 C-0.05 10.85 -0.1 8.61 -0.06 5.31 C-0.05 4.32 -0.04 3.32 -0.04 2.3 C-0.02 1.54 -0.01 0.78 0 0 Z " fill="#0D0E10" transform="translate(811,621)"/>
<path d="M0 0 C0.99 0.33 1.98 0.66 3 1 C3 1.66 3 2.32 3 3 C3.99 3.33 4.98 3.66 6 4 C6 4.66 6 5.32 6 6 C4.02 6.33 2.04 6.66 0 7 C-1.12 2.25 -1.12 2.25 0 0 Z " fill="#101012" transform="translate(435,614)"/>
<path d="M0 0 C2.15 2.62 3.4 4.64 4 8 C2.33 8.04 0.67 8.04 -1 8 C-2 7 -2 7 -2.06 3.94 C-2.04 2.97 -2.02 2 -2 1 C-1.34 0.67 -0.68 0.34 0 0 Z " fill="#0F0F11" transform="translate(589,497)"/>
<path d="M0 0 C1.48 0.99 1.48 0.99 3 2 C3.29 4.38 3.29 4.38 3.19 7.12 C3.16 8.04 3.13 8.95 3.11 9.88 C3.07 10.58 3.04 11.28 3 12 C-1.35 5.47 -1.35 5.47 -1 1 C-0.67 0.67 -0.34 0.34 0 0 Z " fill="#0F1012" transform="translate(1044,596)"/>
<path d="M0 0 C-1 1.5 -1 1.5 -3 3 C-5.72 3.27 -8.26 3.13 -11 3 C-11 2.01 -11 1.02 -11 0 C-7.18 -1.37 -3.93 -0.68 0 0 Z " fill="#0E0F11" transform="translate(313,272)"/>
<path d="M0 0 C2.85 2.85 2.46 5.8 2.62 9.62 C2.68 10.68 2.68 10.68 2.74 11.77 C2.84 13.51 2.92 15.25 3 17 C0.86 12.73 -0.12 10.23 -0.06 5.38 C-0.05 4.37 -0.04 3.37 -0.04 2.34 C-0.02 1.57 -0.01 0.79 0 0 Z " fill="#101112" transform="translate(497,242)"/>
<path d="M0 0 C1.62 2.96 2.52 5.69 3.19 9 C3.37 9.85 3.55 10.69 3.73 11.56 C4 14.03 3.76 15.66 3 18 C0.6 14.4 0.56 11.49 0.38 7.31 C0.34 6.61 0.3 5.91 0.26 5.19 C0.16 3.46 0.08 1.73 0 0 Z " fill="#0F0F11" transform="translate(500,260)"/>
<path d="M0 0 C0.77 0.9 0.77 0.9 1.56 1.81 C4.57 4.51 7.25 5.56 11 7 C11 7.33 11 7.66 11 8 C7.23 8.35 5.41 8.25 2.12 6.25 C0 4 0 4 0 0 Z " fill="#0D0E10" transform="translate(837,631)"/>
<path d="M0 0 C0.66 0 1.32 0 2 0 C3.45 4.54 4.24 8.18 4 13 C0.25 9.25 0.31 5.02 0 0 Z " fill="#101113" transform="translate(1035,615)"/>
<path d="M0 0 C0.33 0.99 0.66 1.98 1 3 C0.34 3 -0.32 3 -1 3 C-0.67 5.31 -0.34 7.62 0 10 C-1.65 10 -3.3 10 -5 10 C-4.55 8.52 -4.09 7.04 -3.62 5.56 C-3.37 4.74 -3.11 3.92 -2.85 3.07 C-2 1 -2 1 0 0 Z " fill="#0F0F11" transform="translate(588,495)"/>
<path d="M0 0 C2.02 3.04 2.32 4.19 2.62 7.69 C2.7 8.5 2.77 9.3 2.85 10.14 C2.9 10.75 2.95 11.37 3 12 C0.37 9.76 -0.42 8.31 -0.75 4.88 C-0.83 3.6 -0.91 2.32 -1 1 C-0.67 0.67 -0.34 0.34 0 0 Z " fill="#0D0E10" transform="translate(737,389)"/>
<path d="M0 0 C0.66 0.66 1.32 1.32 2 2 C1.01 2 0.02 2 -1 2 C-0.67 1.34 -0.34 0.68 0 0 Z " fill="#0D0E10" transform="translate(215,333)"/>
<path d="M0 0 C4.22 1.56 6.37 4.45 9 8 C9.81 10.38 9.81 10.38 10 12 C7.35 9.42 5.06 7.08 3 4 C2.01 3.34 1.02 2.68 0 2 C0 1.34 0 0.68 0 0 Z " fill="#0F0F11" transform="translate(489,608)"/>
</svg>
